<svg width="1638" height="266" viewBox="0 0 1638 266" fill="none" xmlns="http://www.w3.org/2000/svg">
<path d="M510.385 26.153H421.994V48.2508H486.887C499.959 48.2508 510.385 58.8328 510.385 71.749V91.0456C510.385 104.118 499.959 114.544 486.887 114.544H399.897V92.4462H488.287V70.3485H423.395C410.323 70.3485 399.897 59.7665 399.897 46.8502V27.5536C399.897 14.4817 410.323 4.05533 423.395 4.05533H510.385V26.153Z" fill="black"/>
<path d="M617.535 4.05533C630.607 4.05533 641.189 14.4817 641.189 27.5536V91.0456C641.189 104.118 630.607 114.544 617.535 114.544H549.53C536.458 114.544 526.032 104.118 526.032 91.0456V27.5536C526.032 14.4817 536.458 4.05533 549.53 4.05533H617.535ZM618.936 26.153H548.13V92.4462H618.936V26.153Z" fill="black"/>
<path d="M680.536 91.6681H766.748V115.478H671.977C663.574 115.478 656.727 108.63 656.727 100.227V3.12163H680.536V91.6681Z" fill="black"/>
<path d="M878.27 4.05533C888.852 4.05533 897.411 12.4587 897.411 23.0407V114.544H875.158V78.285H804.352V114.544H782.254V23.0407C782.254 12.4587 790.658 4.05533 801.24 4.05533H878.27ZM875.158 26.153H804.352V56.1873H875.158V26.153Z" fill="black"/>
<path d="M1005.85 4.05533H1028.11V100.227C1028.11 108.164 1021.57 114.544 1013.63 114.544H996.515C991.069 114.7 986.245 111.743 983.755 106.919L940.804 26.153H935.046V114.544H912.949V18.5278C912.949 10.4357 919.329 4.05533 927.266 4.05533H945.317C950.608 4.05533 955.588 6.85645 958.078 11.6806L1001.03 92.4462H1005.85V4.05533Z" fill="black"/>
<path d="M1139.66 4.05533C1150.24 4.05533 1158.8 12.4587 1158.8 23.0407V114.544H1136.55V78.285H1065.74V114.544H1043.64V23.0407C1043.64 12.4587 1052.05 4.05533 1062.63 4.05533H1139.66ZM1136.55 26.153H1065.74V56.1873H1136.55V26.153Z" fill="black"/>
<path d="M508.207 171.536H421.994V193.634H508.207V215.732H421.994V259.927H399.897V149.439H508.207V171.536Z" fill="black"/>
<path d="M615.256 149.439C628.328 149.439 638.91 159.865 638.91 172.937V236.429C638.91 249.501 628.328 259.927 615.256 259.927H547.251C534.179 259.927 523.752 249.501 523.752 236.429V172.937C523.752 159.865 534.179 149.439 547.251 149.439H615.256ZM616.656 171.536H545.85V237.829H616.656V171.536Z" fill="black"/>
<path d="M747.351 149.439H769.604V222.89C769.448 243.432 752.953 259.927 732.411 259.927H691.484C670.942 259.927 654.447 243.432 654.447 222.89V149.439H676.545V218.377C676.545 229.115 685.259 237.829 695.997 237.829H727.899C738.636 237.829 747.351 229.115 747.351 218.377V149.439Z" fill="black"/>
<path d="M878.045 149.439H900.299V245.61C900.299 253.547 893.763 259.927 885.826 259.927H868.708C863.262 260.083 858.437 257.126 855.948 252.302L812.997 171.536H807.239V259.927H785.142V163.911C785.142 155.819 791.522 149.439 799.458 149.439H817.51C822.801 149.439 827.781 152.24 830.271 157.064L873.221 237.829H878.045V149.439Z" fill="black"/>
<path d="M993.801 149.439C1014.34 149.439 1030.84 166.09 1030.99 186.476V222.89C1030.84 243.432 1014.34 259.927 993.801 259.927H915.836V149.439H993.801ZM1008.74 191.144C1008.74 180.251 1000.03 171.536 989.288 171.536H937.934V237.829H989.288C1000.03 237.829 1008.74 229.115 1008.74 218.377V191.144Z" fill="black"/>
<path d="M1142.55 149.439C1153.13 149.439 1161.69 157.842 1161.69 168.424V259.927H1139.43V223.668H1068.63V259.927H1046.53V168.424C1046.53 157.842 1054.93 149.439 1065.52 149.439H1142.55ZM1139.43 171.536H1068.63V201.57H1139.43V171.536Z" fill="black"/>
<path d="M1177.23 149.439H1287.71V171.536H1243.52V259.927H1221.42V171.536H1177.23V149.439Z" fill="black"/>
<path d="M1325.46 259.927H1303.36V149.439H1325.46V259.927Z" fill="black"/>
<path d="M1432.55 149.439C1445.62 149.439 1456.21 159.865 1456.21 172.937V236.429C1456.21 249.501 1445.62 259.927 1432.55 259.927H1364.55C1351.48 259.927 1341.05 249.501 1341.05 236.429V172.937C1341.05 159.865 1351.48 149.439 1364.55 149.439H1432.55ZM1433.95 171.536H1363.15V237.829H1433.95V171.536Z" fill="black"/>
<path d="M1564.65 149.439H1586.9V245.61C1586.9 253.547 1580.36 259.927 1572.43 259.927H1555.31C1549.86 260.083 1545.04 257.126 1542.55 252.302L1499.6 171.536H1493.84V259.927H1471.74V163.911C1471.74 155.819 1478.12 149.439 1486.06 149.439H1504.11C1509.4 149.439 1514.38 152.24 1516.87 157.064L1559.82 237.829H1564.65V149.439Z" fill="black"/>
<g clip-path="url(#clip0_476_2441)">
<path d="M284.225 208.986L237.063 259.657C236.038 260.758 234.797 261.635 233.419 262.235C232.04 262.835 230.553 263.144 229.05 263.143H5.47534C4.40854 263.143 3.36499 262.831 2.4729 262.245C1.58081 261.659 0.879045 260.824 0.453827 259.844C0.0286089 258.864 -0.10154 257.781 0.0793721 256.728C0.260284 255.674 0.744376 254.697 1.47217 253.916L48.6706 203.244C49.6931 202.147 50.9296 201.271 52.3037 200.671C53.6777 200.072 55.1599 199.761 56.6587 199.758H280.222C281.288 199.758 282.332 200.071 283.224 200.657C284.116 201.243 284.818 202.077 285.243 203.057C285.668 204.037 285.799 205.12 285.618 206.174C285.437 207.227 284.953 208.204 284.225 208.986V208.986ZM237.063 106.948C236.038 105.848 234.797 104.97 233.419 104.37C232.04 103.771 230.553 103.462 229.05 103.462H5.47534C4.40854 103.462 3.36499 103.775 2.4729 104.361C1.58081 104.947 0.879045 105.781 0.453827 106.761C0.0286089 107.741 -0.10154 108.825 0.0793721 109.878C0.260284 110.931 0.744376 111.908 1.47217 112.69L48.6706 163.361C49.6931 164.459 50.9296 165.334 52.3037 165.934C53.6777 166.534 55.1599 166.844 56.6587 166.847H280.222C281.288 166.847 282.332 166.535 283.224 165.949C284.116 165.363 284.818 164.528 285.243 163.548C285.668 162.568 285.799 161.485 285.618 160.432C285.437 159.378 284.953 158.401 284.225 157.62L237.063 106.948ZM5.47534 70.551H229.05C230.553 70.5518 232.04 70.2427 233.419 69.643C234.797 69.0432 236.038 68.1656 237.063 67.0649L284.225 16.3937C284.953 15.6123 285.437 14.635 285.618 13.5817C285.799 12.5285 285.668 11.4453 285.243 10.4652C284.818 9.48504 284.116 8.65069 283.224 8.06464C282.332 7.47859 281.288 7.16636 280.222 7.16633L56.6587 7.16633C55.1599 7.16888 53.6777 7.47961 52.3037 8.07926C50.9296 8.67891 49.6931 9.55473 48.6706 10.6525L1.48434 61.3237C0.757246 62.1043 0.273368 63.0805 0.0920454 64.1326C-0.0892769 65.1847 0.0398391 66.2669 0.463559 67.2466C0.887278 68.2263 1.58718 69.0607 2.47743 69.6477C3.36768 70.2347 4.40957 70.5486 5.47534 70.551V70.551Z" fill="black"/>
</g>
<defs>
<clipPath id="clip0_476_2441">
<rect width="285.697" height="255.977" fill="white" transform="translate(6.10352e-05 7.16633)"/>
</clipPath>
</defs>
</svg>
