<svg width="1638" height="266" viewBox="0 0 1638 266" fill="none" xmlns="http://www.w3.org/2000/svg">
<path d="M510.385 26.1533H421.994V48.251H486.887C499.959 48.251 510.385 58.833 510.385 71.7493V91.0459C510.385 104.118 499.959 114.544 486.887 114.544H399.897V92.4465H488.288V70.3487H423.395C410.323 70.3487 399.897 59.7667 399.897 46.8505V27.5539C399.897 14.482 410.323 4.05561 423.395 4.05561H510.385V26.1533Z" fill="white"/>
<path d="M617.535 4.05561C630.607 4.05561 641.189 14.482 641.189 27.5539V91.0459C641.189 104.118 630.607 114.544 617.535 114.544H549.53C536.459 114.544 526.032 104.118 526.032 91.0459V27.5539C526.032 14.482 536.459 4.05561 549.53 4.05561H617.535ZM618.936 26.1533H548.13V92.4465H618.936V26.1533Z" fill="white"/>
<path d="M680.536 91.6684H766.748V115.478H671.977C663.574 115.478 656.727 108.631 656.727 100.227V3.12191H680.536V91.6684Z" fill="white"/>
<path d="M878.27 4.05561C888.852 4.05561 897.411 12.459 897.411 23.041V114.544H875.158V78.2852H804.352V114.544H782.254V23.041C782.254 12.459 790.658 4.05561 801.24 4.05561H878.27ZM875.158 26.1533H804.352V56.1875H875.158V26.1533Z" fill="white"/>
<path d="M1005.85 4.05561H1028.11V100.227C1028.11 108.164 1021.57 114.544 1013.63 114.544H996.515C991.069 114.7 986.245 111.743 983.755 106.919L940.804 26.1533H935.046V114.544H912.949V18.5281C912.949 10.4359 919.329 4.05561 927.266 4.05561H945.317C950.608 4.05561 955.588 6.85673 958.078 11.6809L1001.03 92.4465H1005.85V4.05561Z" fill="white"/>
<path d="M1139.66 4.05561C1150.24 4.05561 1158.8 12.459 1158.8 23.041V114.544H1136.55V78.2852H1065.74V114.544H1043.64V23.041C1043.64 12.459 1052.05 4.05561 1062.63 4.05561H1139.66ZM1136.55 26.1533H1065.74V56.1875H1136.55V26.1533Z" fill="white"/>
<path d="M508.207 171.537H421.994V193.634H508.207V215.732H421.994V259.927H399.897V149.439H508.207V171.537Z" fill="white"/>
<path d="M615.256 149.439C628.328 149.439 638.91 159.865 638.91 172.937V236.429C638.91 249.501 628.328 259.927 615.256 259.927H547.251C534.179 259.927 523.753 249.501 523.753 236.429V172.937C523.753 159.865 534.179 149.439 547.251 149.439H615.256ZM616.656 171.537H545.85V237.83H616.656V171.537Z" fill="white"/>
<path d="M747.351 149.439H769.604V222.89C769.449 243.432 752.953 259.927 732.412 259.927H691.484C670.943 259.927 654.447 243.432 654.447 222.89V149.439H676.545V218.377C676.545 229.115 685.259 237.83 695.997 237.83H727.899C738.636 237.83 747.351 229.115 747.351 218.377V149.439Z" fill="white"/>
<path d="M878.045 149.439H900.299V245.611C900.299 253.547 893.763 259.927 885.826 259.927H868.708C863.262 260.083 858.438 257.126 855.948 252.302L812.997 171.537H807.239V259.927H785.142V163.911C785.142 155.819 791.522 149.439 799.458 149.439H817.51C822.801 149.439 827.781 152.24 830.271 157.064L873.221 237.83H878.045V149.439Z" fill="white"/>
<path d="M993.801 149.439C1014.34 149.439 1030.84 166.09 1030.99 186.476V222.89C1030.84 243.432 1014.34 259.927 993.801 259.927H915.836V149.439H993.801ZM1008.74 191.144C1008.74 180.251 1000.03 171.537 989.288 171.537H937.934V237.83H989.288C1000.03 237.83 1008.74 229.115 1008.74 218.377V191.144Z" fill="white"/>
<path d="M1142.55 149.439C1153.13 149.439 1161.69 157.842 1161.69 168.424V259.927H1139.43V223.668H1068.63V259.927H1046.53V168.424C1046.53 157.842 1054.93 149.439 1065.52 149.439H1142.55ZM1139.43 171.537H1068.63V201.571H1139.43V171.537Z" fill="white"/>
<path d="M1177.23 149.439H1287.71V171.537H1243.52V259.927H1221.42V171.537H1177.23V149.439Z" fill="white"/>
<path d="M1325.46 259.927H1303.36V149.439H1325.46V259.927Z" fill="white"/>
<path d="M1432.55 149.439C1445.62 149.439 1456.21 159.865 1456.21 172.937V236.429C1456.21 249.501 1445.62 259.927 1432.55 259.927H1364.55C1351.48 259.927 1341.05 249.501 1341.05 236.429V172.937C1341.05 159.865 1351.48 149.439 1364.55 149.439H1432.55ZM1433.95 171.537H1363.15V237.83H1433.95V171.537Z" fill="white"/>
<path d="M1564.65 149.439H1586.9V245.611C1586.9 253.547 1580.37 259.927 1572.43 259.927H1555.31C1549.86 260.083 1545.04 257.126 1542.55 252.302L1499.6 171.537H1493.84V259.927H1471.74V163.911C1471.74 155.819 1478.12 149.439 1486.06 149.439H1504.11C1509.4 149.439 1514.38 152.24 1516.87 157.064L1559.82 237.83H1564.65V149.439Z" fill="white"/>
<g clip-path="url(#clip0_476_2438)">
<path d="M284.225 208.986L237.063 259.657C236.038 260.758 234.797 261.635 233.419 262.235C232.04 262.835 230.553 263.144 229.05 263.143H5.47528C4.40848 263.143 3.36493 262.831 2.47284 262.245C1.58075 261.659 0.878984 260.825 0.453766 259.844C0.0285479 258.864 -0.101601 257.781 0.0793111 256.728C0.260223 255.675 0.744315 254.697 1.47211 253.916L48.6706 203.245C49.693 202.147 50.9296 201.271 52.3036 200.672C53.6776 200.072 55.1599 199.761 56.6586 199.759H280.222C281.288 199.759 282.332 200.071 283.224 200.657C284.116 201.243 284.818 202.077 285.243 203.057C285.668 204.038 285.798 205.121 285.618 206.174C285.437 207.227 284.953 208.205 284.225 208.986V208.986ZM237.063 106.949C236.038 105.848 234.797 104.97 233.419 104.371C232.04 103.771 230.553 103.462 229.05 103.463H5.47528C4.40848 103.463 3.36493 103.775 2.47284 104.361C1.58075 104.947 0.878984 105.781 0.453766 106.761C0.0285479 107.742 -0.101601 108.825 0.0793111 109.878C0.260223 110.931 0.744315 111.909 1.47211 112.69L48.6706 163.361C49.693 164.459 50.9296 165.335 52.3036 165.934C53.6776 166.534 55.1599 166.845 56.6586 166.847H280.222C281.288 166.847 282.332 166.535 283.224 165.949C284.116 165.363 284.818 164.529 285.243 163.548C285.668 162.568 285.798 161.485 285.618 160.432C285.437 159.379 284.953 158.401 284.225 157.62L237.063 106.949ZM5.47528 70.5513H229.05C230.553 70.5521 232.04 70.243 233.419 69.6432C234.797 69.0435 236.038 68.1659 237.063 67.0651L284.225 16.394C284.953 15.6126 285.437 14.6352 285.618 13.582C285.798 12.5288 285.668 11.4456 285.243 10.4654C284.818 9.48532 284.116 8.65097 283.224 8.06492C282.332 7.47886 281.288 7.16664 280.222 7.1666L56.6586 7.1666C55.1599 7.16916 53.6776 7.47988 52.3036 8.07953C50.9296 8.67919 49.693 9.555 48.6706 10.6528L1.48428 61.324C0.757185 62.1046 0.273307 63.0808 0.0919844 64.1329C-0.089338 65.185 0.039778 66.2672 0.463498 67.2469C0.887217 68.2265 1.58712 69.061 2.47737 69.648C3.36762 70.235 4.40951 70.5489 5.47528 70.5513V70.5513Z" fill="white"/>
</g>
<defs>
<clipPath id="clip0_476_2438">
<rect width="285.697" height="255.977" fill="white" transform="translate(0 7.1666)"/>
</clipPath>
</defs>
</svg>
