<svg width="696" height="300" viewBox="0 0 696 300" fill="none" xmlns="http://www.w3.org/2000/svg">
<g clip-path="url(#clip0_476_2462)">
<path d="M100.743 216.116V195.146H21.2134C15.6902 195.146 10.3932 197.34 6.48776 201.245C2.58227 205.151 0.388184 210.448 0.388184 215.971L0.388184 237.233C0.388184 242.756 2.58227 248.053 6.48776 251.959C10.3932 255.864 15.6902 258.058 21.2134 258.058H84.2717V279.029H1.84449V300H84.4173C87.1521 300 89.8601 299.461 92.3868 298.415C94.9134 297.368 97.2092 295.834 99.143 293.9C101.077 291.966 102.611 289.671 103.657 287.144C104.704 284.617 105.243 281.909 105.243 279.175V257.912C105.243 252.389 103.048 247.092 99.143 243.187C95.2375 239.281 89.9405 237.087 84.4173 237.087H21.3591V216.116H100.743Z" fill="black"/>
<path d="M123.082 215.971V279.175C123.08 281.909 123.617 284.616 124.662 287.143C125.707 289.67 127.24 291.965 129.172 293.899C131.105 295.833 133.4 297.368 135.926 298.414C138.452 299.461 141.159 300 143.893 300H207.184C209.919 300 212.627 299.461 215.154 298.415C217.68 297.368 219.976 295.834 221.91 293.9C223.844 291.966 225.378 289.671 226.424 287.144C227.471 284.617 228.009 281.909 228.009 279.175V215.971C228.009 213.236 227.471 210.528 226.424 208.001C225.378 205.475 223.844 203.179 221.91 201.245C219.976 199.311 217.68 197.777 215.154 196.731C212.627 195.684 209.919 195.146 207.184 195.146H143.893C141.159 195.146 138.452 195.684 135.926 196.731C133.4 197.778 131.105 199.312 129.172 201.246C127.24 203.18 125.707 205.476 124.662 208.002C123.617 210.529 123.08 213.237 123.082 215.971ZM206.966 279.029H144.053V216.116H206.966V279.029Z" fill="black"/>
<path d="M346.145 215.971V300H367.116V265.544H428.543V300H449.514V215.971C449.516 213.235 448.979 210.527 447.933 207.999C446.887 205.472 445.353 203.175 443.419 201.241C441.485 199.307 439.188 197.773 436.661 196.727C434.133 195.681 431.424 195.144 428.689 195.146H366.971C364.236 195.146 361.528 195.684 359.001 196.731C356.474 197.777 354.179 199.311 352.245 201.245C350.311 203.179 348.777 205.475 347.731 208.001C346.684 210.528 346.145 213.236 346.145 215.971ZM428.543 244.573H367.116V216.116H428.543V244.573Z" fill="black"/>
<path d="M591.65 215.971V300H612.621V265.544H674.078V300H695.048V215.971C695.048 210.448 692.854 205.151 688.949 201.245C685.043 197.34 679.746 195.146 674.223 195.146H612.519C609.781 195.14 607.068 195.674 604.536 196.718C602.005 197.762 599.704 199.295 597.765 201.23C595.827 203.164 594.289 205.462 593.24 207.991C592.191 210.521 591.65 213.232 591.65 215.971ZM674.034 244.573H612.665V216.116H674.078L674.034 244.573Z" fill="black"/>
<path d="M552.053 195.146V279.029H543.665L513.607 203.883C512.578 201.305 510.801 199.094 508.503 197.537C506.206 195.979 503.494 195.146 500.718 195.146H482.048C478.367 195.146 474.837 196.608 472.235 199.21C469.632 201.813 468.17 205.343 468.17 209.024V300H489.141V216.116H497.529L527.573 291.262C528.596 293.84 530.371 296.052 532.666 297.61C534.962 299.168 537.672 300 540.446 300H559.116C562.797 300 566.327 298.538 568.93 295.935C571.533 293.332 572.995 289.802 572.995 286.121V195.146H552.053Z" fill="black"/>
<path d="M267.563 279.029V195.146H246.592V279.175C246.592 281.909 247.131 284.617 248.177 287.144C249.224 289.671 250.758 291.966 252.692 293.9C254.625 295.834 256.921 297.368 259.448 298.415C261.974 299.461 264.682 300 267.417 300H330.476V279.029H267.563Z" fill="black"/>
<g clip-path="url(#clip1_476_2462)">
<path d="M417.629 98.7449L394.55 123.537C394.048 124.076 393.441 124.505 392.767 124.798C392.092 125.092 391.365 125.243 390.629 125.243H281.223C280.701 125.243 280.19 125.09 279.754 124.803C279.317 124.516 278.974 124.108 278.766 123.629C278.557 123.149 278.494 122.619 278.582 122.104C278.671 121.588 278.908 121.11 279.264 120.728L302.36 95.9359C302.861 95.3988 303.466 94.9703 304.138 94.6769C304.811 94.3835 305.536 94.2315 306.269 94.2302H415.67C416.192 94.2302 416.703 94.383 417.139 94.6697C417.576 94.9565 417.919 95.3647 418.127 95.8443C418.335 96.3238 418.399 96.8538 418.31 97.3691C418.222 97.8844 417.985 98.3626 417.629 98.7449ZM394.55 48.8208C394.048 48.2822 393.441 47.8529 392.767 47.5594C392.092 47.266 391.365 47.1147 390.629 47.1151H281.223C280.701 47.1151 280.19 47.2679 279.754 47.5546C279.317 47.8414 278.974 48.2496 278.766 48.7291C278.557 49.2087 278.494 49.7387 278.582 50.254C278.671 50.7693 278.908 51.2475 279.264 51.6298L302.36 76.4219C302.861 76.959 303.466 77.3875 304.138 77.6809C304.811 77.9743 305.536 78.1263 306.269 78.1276H415.67C416.192 78.1276 416.703 77.9748 417.139 77.6881C417.576 77.4013 417.919 76.9931 418.127 76.5135C418.335 76.034 418.399 75.504 418.31 74.9887C418.222 74.4734 417.985 73.9952 417.629 73.6129L394.55 48.8208ZM281.223 31.0125H390.629C391.365 31.0129 392.092 30.8616 392.767 30.5682C393.441 30.2747 394.048 29.8454 394.55 29.3068L417.629 4.5147C417.985 4.1324 418.222 3.65421 418.31 3.1389C418.399 2.62358 418.335 2.09359 418.127 1.61404C417.919 1.13449 417.576 0.72626 417.139 0.439521C416.703 0.152781 416.192 1.76584e-05 415.67 0L306.269 0C305.536 0.00125015 304.811 0.153279 304.138 0.446673C303.466 0.740067 302.861 1.16858 302.36 1.70569L279.27 26.4978C278.914 26.8797 278.677 27.3573 278.588 27.8721C278.5 28.3869 278.563 28.9164 278.77 29.3957C278.978 29.875 279.32 30.2833 279.756 30.5705C280.191 30.8577 280.701 31.0113 281.223 31.0125Z" fill="black"/>
</g>
</g>
<defs>
<clipPath id="clip0_476_2462">
<rect width="694.66" height="300" fill="white" transform="translate(0.388184)"/>
</clipPath>
<clipPath id="clip1_476_2462">
<rect width="139.806" height="125.243" fill="white" transform="translate(278.543)"/>
</clipPath>
</defs>
</svg>
