<svg width="696" height="300" viewBox="0 0 696 300" fill="none" xmlns="http://www.w3.org/2000/svg">
<g clip-path="url(#clip0_476_2458)">
<path d="M101.15 216.116V195.146H21.6211C16.0979 195.146 10.801 197.34 6.89547 201.245C2.98998 205.151 0.795898 210.448 0.795898 215.971L0.795898 237.233C0.795898 242.756 2.98998 248.053 6.89547 251.959C10.801 255.864 16.0979 258.058 21.6211 258.058H84.6794V279.029H2.25221V300H84.825C87.5598 300 90.2679 299.461 92.7945 298.415C95.3211 297.368 97.6169 295.834 99.5507 293.9C101.484 291.966 103.018 289.671 104.065 287.144C105.112 284.617 105.65 281.909 105.65 279.175V257.912C105.65 252.389 103.456 247.092 99.5507 243.187C95.6452 239.281 90.3482 237.087 84.825 237.087H21.7668V216.116H101.15Z" fill="black"/>
<path d="M123.49 215.971V279.175C123.488 281.909 124.025 284.616 125.07 287.143C126.115 289.67 127.648 291.965 129.58 293.899C131.513 295.833 133.808 297.368 136.334 298.414C138.859 299.461 141.567 300 144.301 300H207.592C210.327 300 213.035 299.461 215.562 298.415C218.088 297.368 220.384 295.834 222.318 293.9C224.252 291.966 225.786 289.671 226.832 287.144C227.879 284.617 228.417 281.909 228.417 279.175V215.971C228.417 213.236 227.879 210.528 226.832 208.001C225.786 205.475 224.252 203.179 222.318 201.245C220.384 199.311 218.088 197.777 215.562 196.731C213.035 195.684 210.327 195.146 207.592 195.146H144.301C141.567 195.146 138.859 195.684 136.334 196.731C133.808 197.778 131.513 199.312 129.58 201.246C127.648 203.18 126.115 205.476 125.07 208.002C124.025 210.529 123.488 213.237 123.49 215.971ZM207.374 279.029H144.461V216.116H207.374V279.029Z" fill="black"/>
<path d="M346.553 215.971V300H367.524V265.544H428.951V300H449.922V215.971C449.924 213.235 449.387 210.527 448.341 207.999C447.295 205.472 445.761 203.175 443.827 201.241C441.893 199.307 439.596 197.773 437.069 196.727C434.541 195.681 431.832 195.144 429.097 195.146H367.378C364.644 195.146 361.936 195.684 359.409 196.731C356.882 197.777 354.587 199.311 352.653 201.245C350.719 203.179 349.185 205.475 348.138 208.001C347.092 210.528 346.553 213.236 346.553 215.971ZM428.951 244.573H367.524V216.116H428.951V244.573Z" fill="black"/>
<path d="M592.058 215.971V300H613.029V265.544H674.485V300H695.456V215.971C695.456 210.448 693.262 205.151 689.357 201.245C685.451 197.34 680.154 195.146 674.631 195.146H612.927C610.189 195.14 607.476 195.674 604.944 196.718C602.412 197.762 600.112 199.295 598.173 201.23C596.235 203.164 594.697 205.462 593.648 207.991C592.598 210.521 592.058 213.232 592.058 215.971ZM674.442 244.573H613.073V216.116H674.485L674.442 244.573Z" fill="black"/>
<path d="M552.461 195.146V279.029H544.072L514.014 203.883C512.986 201.305 511.208 199.094 508.911 197.537C506.613 195.979 503.901 195.146 501.126 195.146H482.456C478.775 195.146 475.245 196.608 472.642 199.21C470.039 201.813 468.577 205.343 468.577 209.024V300H489.548V216.116H497.936L527.98 291.262C529.004 293.84 530.779 296.052 533.074 297.61C535.369 299.168 538.08 300 540.854 300H559.524C563.205 300 566.735 298.538 569.337 295.935C571.94 293.332 573.402 289.802 573.402 286.121V195.146H552.461Z" fill="black"/>
<path d="M267.971 279.029V195.146H247V279.175C247 281.909 247.539 284.617 248.585 287.144C249.632 289.671 251.166 291.966 253.1 293.9C255.033 295.834 257.329 297.368 259.856 298.415C262.382 299.461 265.09 300 267.825 300H330.883V279.029H267.971Z" fill="black"/>
<g clip-path="url(#clip1_476_2458)">
<path d="M418.037 98.7449L394.958 123.537C394.456 124.076 393.849 124.505 393.175 124.798C392.5 125.092 391.772 125.243 391.037 125.243H281.63C281.108 125.243 280.598 125.09 280.161 124.803C279.725 124.516 279.381 124.108 279.173 123.629C278.965 123.149 278.901 122.619 278.99 122.104C279.079 121.588 279.315 121.11 279.672 120.728L302.768 95.9359C303.268 95.3988 303.874 94.9703 304.546 94.6769C305.218 94.3835 305.944 94.2315 306.677 94.2302H416.078C416.6 94.2302 417.11 94.383 417.547 94.6697C417.983 94.9565 418.327 95.3647 418.535 95.8443C418.743 96.3238 418.807 96.8538 418.718 97.3691C418.63 97.8844 418.393 98.3626 418.037 98.7449ZM394.958 48.8208C394.456 48.2822 393.849 47.8529 393.175 47.5594C392.5 47.266 391.772 47.1147 391.037 47.1151H281.63C281.108 47.1151 280.598 47.2679 280.161 47.5546C279.725 47.8414 279.381 48.2496 279.173 48.7291C278.965 49.2087 278.901 49.7387 278.99 50.254C279.079 50.7693 279.315 51.2475 279.672 51.6298L302.768 76.4219C303.268 76.959 303.874 77.3875 304.546 77.6809C305.218 77.9743 305.944 78.1263 306.677 78.1276H416.078C416.6 78.1276 417.11 77.9748 417.547 77.6881C417.983 77.4013 418.327 76.9931 418.535 76.5135C418.743 76.034 418.807 75.504 418.718 74.9887C418.63 74.4734 418.393 73.9952 418.037 73.6129L394.958 48.8208ZM281.63 31.0125H391.037C391.772 31.0129 392.5 30.8616 393.175 30.5682C393.849 30.2747 394.456 29.8454 394.958 29.3068L418.037 4.5147C418.393 4.1324 418.63 3.65421 418.718 3.1389C418.807 2.62358 418.743 2.09359 418.535 1.61404C418.327 1.13449 417.983 0.72626 417.547 0.439521C417.11 0.152781 416.6 1.76584e-05 416.078 0L306.677 0C305.944 0.00125015 305.218 0.153279 304.546 0.446673C303.874 0.740067 303.268 1.16858 302.768 1.70569L279.678 26.4978C279.322 26.8797 279.085 27.3573 278.996 27.8721C278.907 28.3869 278.971 28.9164 279.178 29.3957C279.385 29.875 279.728 30.2833 280.163 30.5705C280.599 30.8577 281.109 31.0113 281.63 31.0125Z" fill="url(#paint0_linear_476_2458)"/>
</g>
</g>
<defs>
<linearGradient id="paint0_linear_476_2458" x1="290.752" y1="128.228" x2="405.694" y2="-1.13265" gradientUnits="userSpaceOnUse">
<stop offset="0.08" stop-color="#9945FF"/>
<stop offset="0.3" stop-color="#8752F3"/>
<stop offset="0.5" stop-color="#5497D5"/>
<stop offset="0.6" stop-color="#43B4CA"/>
<stop offset="0.72" stop-color="#28E0B9"/>
<stop offset="0.97" stop-color="#19FB9B"/>
</linearGradient>
<clipPath id="clip0_476_2458">
<rect width="694.66" height="300" fill="white" transform="translate(0.795898)"/>
</clipPath>
<clipPath id="clip1_476_2458">
<rect width="139.806" height="125.243" fill="white" transform="translate(278.951)"/>
</clipPath>
</defs>
</svg>
