<svg width="696" height="300" viewBox="0 0 696 300" fill="none" xmlns="http://www.w3.org/2000/svg">
<g clip-path="url(#clip0_476_2460)">
<path d="M100.946 216.116V195.146H21.417C15.8938 195.146 10.5969 197.34 6.69137 201.245C2.78588 205.151 0.591797 210.448 0.591797 215.971L0.591797 237.233C0.591797 242.756 2.78588 248.053 6.69137 251.959C10.5969 255.864 15.8938 258.058 21.417 258.058H84.4753V279.029H2.04811V300H84.6209C87.3557 300 90.0638 299.461 92.5904 298.415C95.117 297.368 97.4128 295.834 99.3466 293.9C101.28 291.966 102.814 289.671 103.861 287.144C104.907 284.617 105.446 281.909 105.446 279.175V257.912C105.446 252.389 103.252 247.092 99.3466 243.187C95.4411 239.281 90.1441 237.087 84.6209 237.087H21.5627V216.116H100.946Z" fill="white"/>
<path d="M123.286 215.971V279.175C123.284 281.909 123.821 284.616 124.866 287.143C125.911 289.67 127.444 291.965 129.376 293.899C131.309 295.833 133.604 297.368 136.13 298.414C138.655 299.461 141.363 300 144.097 300H207.388C210.123 300 212.831 299.461 215.358 298.415C217.884 297.368 220.18 295.834 222.114 293.9C224.048 291.966 225.582 289.671 226.628 287.144C227.675 284.617 228.213 281.909 228.213 279.175V215.971C228.213 213.236 227.675 210.528 226.628 208.001C225.582 205.475 224.048 203.179 222.114 201.245C220.18 199.311 217.884 197.777 215.358 196.731C212.831 195.684 210.123 195.146 207.388 195.146H144.097C141.363 195.146 138.655 195.684 136.13 196.731C133.604 197.778 131.309 199.312 129.376 201.246C127.444 203.18 125.911 205.476 124.866 208.002C123.821 210.529 123.284 213.237 123.286 215.971ZM207.17 279.029H144.257V216.116H207.17V279.029Z" fill="white"/>
<path d="M346.349 215.971V300H367.32V265.544H428.747V300H449.718V215.971C449.72 213.235 449.183 210.527 448.137 207.999C447.091 205.472 445.557 203.175 443.623 201.241C441.689 199.307 439.392 197.773 436.865 196.727C434.337 195.681 431.628 195.144 428.893 195.146H367.174C364.44 195.146 361.732 195.684 359.205 196.731C356.678 197.777 354.382 199.311 352.449 201.245C350.515 203.179 348.981 205.475 347.934 208.001C346.888 210.528 346.349 213.236 346.349 215.971ZM428.747 244.573H367.32V216.116H428.747V244.573Z" fill="white"/>
<path d="M591.854 215.971V300H612.825V265.544H674.281V300H695.252V215.971C695.252 210.448 693.058 205.151 689.152 201.245C685.247 197.34 679.95 195.146 674.427 195.146H612.723C609.984 195.14 607.272 195.674 604.74 196.718C602.208 197.762 599.907 199.295 597.969 201.23C596.031 203.164 594.493 205.462 593.443 207.991C592.394 210.521 591.854 213.232 591.854 215.971ZM674.238 244.573H612.869V216.116H674.281L674.238 244.573Z" fill="white"/>
<path d="M552.257 195.146V279.029H543.868L513.81 203.883C512.782 201.305 511.004 199.094 508.707 197.537C506.409 195.979 503.698 195.146 500.922 195.146H482.252C478.571 195.146 475.041 196.608 472.438 199.21C469.836 201.813 468.373 205.343 468.373 209.024V300H489.344V216.116H497.733L527.776 291.262C528.8 293.84 530.575 296.052 532.87 297.61C535.165 299.168 537.876 300 540.65 300H559.32C563.001 300 566.531 298.538 569.134 295.935C571.736 293.332 573.199 289.802 573.199 286.121V195.146H552.257Z" fill="white"/>
<path d="M267.767 279.029V195.146H246.796V279.175C246.796 281.909 247.335 284.617 248.381 287.144C249.428 289.671 250.962 291.966 252.895 293.9C254.829 295.834 257.125 297.368 259.652 298.415C262.178 299.461 264.886 300 267.621 300H330.679V279.029H267.767Z" fill="white"/>
<g clip-path="url(#clip1_476_2460)">
<path d="M417.833 98.7449L394.754 123.537C394.252 124.076 393.645 124.505 392.971 124.798C392.296 125.092 391.568 125.243 390.833 125.243H281.426C280.904 125.243 280.394 125.09 279.957 124.803C279.521 124.516 279.177 124.108 278.969 123.629C278.761 123.149 278.697 122.619 278.786 122.104C278.874 121.588 279.111 121.11 279.467 120.728L302.564 95.9359C303.064 95.3988 303.669 94.9703 304.342 94.6769C305.014 94.3835 305.74 94.2315 306.473 94.2302H415.874C416.396 94.2302 416.906 94.383 417.343 94.6697C417.779 94.9565 418.123 95.3647 418.331 95.8443C418.539 96.3238 418.603 96.8538 418.514 97.3691C418.426 97.8844 418.189 98.3626 417.833 98.7449ZM394.754 48.8208C394.252 48.2822 393.645 47.8529 392.971 47.5594C392.296 47.266 391.568 47.1147 390.833 47.1151H281.426C280.904 47.1151 280.394 47.2679 279.957 47.5546C279.521 47.8414 279.177 48.2496 278.969 48.7291C278.761 49.2087 278.697 49.7387 278.786 50.254C278.874 50.7693 279.111 51.2475 279.467 51.6298L302.564 76.4219C303.064 76.959 303.669 77.3875 304.342 77.6809C305.014 77.9743 305.74 78.1263 306.473 78.1276H415.874C416.396 78.1276 416.906 77.9748 417.343 77.6881C417.779 77.4013 418.123 76.9931 418.331 76.5135C418.539 76.034 418.603 75.504 418.514 74.9887C418.426 74.4734 418.189 73.9952 417.833 73.6129L394.754 48.8208ZM281.426 31.0125H390.833C391.568 31.0129 392.296 30.8616 392.971 30.5682C393.645 30.2747 394.252 29.8454 394.754 29.3068L417.833 4.5147C418.189 4.1324 418.426 3.65421 418.514 3.1389C418.603 2.62358 418.539 2.09359 418.331 1.61404C418.123 1.13449 417.779 0.72626 417.343 0.439521C416.906 0.152781 416.396 1.76584e-05 415.874 0L306.473 0C305.74 0.00125015 305.014 0.153279 304.342 0.446673C303.669 0.740067 303.064 1.16858 302.564 1.70569L279.473 26.4978C279.118 26.8797 278.881 27.3573 278.792 27.8721C278.703 28.3869 278.767 28.9164 278.974 29.3957C279.181 29.875 279.524 30.2833 279.959 30.5705C280.395 30.8577 280.905 31.0113 281.426 31.0125Z" fill="white"/>
</g>
</g>
<defs>
<clipPath id="clip0_476_2460">
<rect width="694.66" height="300" fill="white" transform="translate(0.591797)"/>
</clipPath>
<clipPath id="clip1_476_2460">
<rect width="139.806" height="125.243" fill="white" transform="translate(278.747)"/>
</clipPath>
</defs>
</svg>
