<svg width="695" height="300" viewBox="0 0 695 300" fill="none" xmlns="http://www.w3.org/2000/svg">
<g clip-path="url(#clip0_476_2456)">
<path d="M100.354 216.116V195.146H20.8252C15.302 195.146 10.0051 197.34 6.09957 201.245C2.19408 205.151 0 210.448 0 215.971L0 237.233C0 242.756 2.19408 248.053 6.09957 251.959C10.0051 255.864 15.302 258.058 20.8252 258.058H83.8835V279.029H1.45631V300H84.0291C86.7639 300 89.472 299.461 91.9986 298.415C94.5252 297.368 96.821 295.834 98.7548 293.9C100.689 291.966 102.223 289.671 103.269 287.144C104.316 284.617 104.854 281.909 104.854 279.175V257.912C104.854 252.389 102.66 247.092 98.7548 243.187C94.8493 239.281 89.5523 237.087 84.0291 237.087H20.9709V216.116H100.354Z" fill="white"/>
<path d="M122.694 215.971V279.175C122.692 281.909 123.229 284.616 124.274 287.143C125.319 289.67 126.852 291.965 128.784 293.899C130.717 295.833 133.012 297.368 135.538 298.414C138.064 299.461 140.771 300 143.505 300H206.796C209.531 300 212.239 299.461 214.766 298.415C217.292 297.368 219.588 295.834 221.522 293.9C223.456 291.966 224.99 289.671 226.036 287.144C227.083 284.617 227.622 281.909 227.622 279.175V215.971C227.622 213.236 227.083 210.528 226.036 208.001C224.99 205.475 223.456 203.179 221.522 201.245C219.588 199.311 217.292 197.777 214.766 196.731C212.239 195.684 209.531 195.146 206.796 195.146H143.505C140.771 195.146 138.064 195.684 135.538 196.731C133.012 197.778 130.717 199.312 128.784 201.246C126.852 203.18 125.319 205.476 124.274 208.002C123.229 210.529 122.692 213.237 122.694 215.971ZM206.578 279.029H143.665V216.116H206.578V279.029Z" fill="white"/>
<path d="M345.757 215.971V300H366.728V265.544H428.155V300H449.126V215.971C449.128 213.235 448.591 210.527 447.545 207.999C446.499 205.472 444.965 203.175 443.031 201.241C441.097 199.307 438.8 197.773 436.273 196.727C433.745 195.681 431.036 195.144 428.301 195.146H366.583C363.848 195.146 361.14 195.684 358.613 196.731C356.086 197.777 353.791 199.311 351.857 201.245C349.923 203.179 348.389 205.475 347.343 208.001C346.296 210.528 345.757 213.236 345.757 215.971ZM428.155 244.573H366.728V216.116H428.155V244.573Z" fill="white"/>
<path d="M591.262 215.971V300H612.233V265.544H673.689V300H694.66V215.971C694.66 210.448 692.466 205.151 688.561 201.245C684.655 197.34 679.358 195.146 673.835 195.146H612.131C609.393 195.14 606.68 195.674 604.148 196.718C601.617 197.762 599.316 199.295 597.377 201.23C595.439 203.164 593.901 205.462 592.852 207.991C591.802 210.521 591.262 213.232 591.262 215.971ZM673.646 244.573H612.277V216.116H673.689L673.646 244.573Z" fill="white"/>
<path d="M551.665 195.146V279.029H543.276L513.218 203.883C512.19 201.305 510.412 199.094 508.115 197.537C505.817 195.979 503.106 195.146 500.33 195.146H481.66C477.979 195.146 474.449 196.608 471.846 199.21C469.243 201.813 467.781 205.343 467.781 209.024V300H488.752V216.116H497.14L527.184 291.262C528.208 293.84 529.983 296.052 532.278 297.61C534.573 299.168 537.284 300 540.058 300H558.728C562.409 300 565.939 298.538 568.542 295.935C571.144 293.332 572.606 289.802 572.606 286.121V195.146H551.665Z" fill="white"/>
<path d="M267.175 279.029V195.146H246.204V279.175C246.204 281.909 246.743 284.617 247.789 287.144C248.836 289.671 250.37 291.966 252.304 293.9C254.237 295.834 256.533 297.368 259.06 298.415C261.587 299.461 264.295 300 267.029 300H330.088V279.029H267.175Z" fill="white"/>
<g clip-path="url(#clip1_476_2456)">
<path d="M417.241 98.7449L394.162 123.537C393.66 124.076 393.053 124.505 392.379 124.798C391.704 125.092 390.977 125.243 390.241 125.243H280.835C280.313 125.243 279.802 125.09 279.365 124.803C278.929 124.516 278.585 124.108 278.377 123.629C278.169 123.149 278.106 122.619 278.194 122.104C278.283 121.588 278.52 121.11 278.876 120.728L301.972 95.9359C302.473 95.3988 303.078 94.9703 303.75 94.6769C304.422 94.3835 305.148 94.2315 305.881 94.2302H415.282C415.804 94.2302 416.314 94.383 416.751 94.6697C417.188 94.9565 417.531 95.3647 417.739 95.8443C417.947 96.3238 418.011 96.8538 417.922 97.3691C417.834 97.8844 417.597 98.3626 417.241 98.7449ZM394.162 48.8208C393.66 48.2822 393.053 47.8529 392.379 47.5594C391.704 47.266 390.977 47.1147 390.241 47.1151H280.835C280.313 47.1151 279.802 47.2679 279.365 47.5546C278.929 47.8414 278.585 48.2496 278.377 48.7291C278.169 49.2087 278.106 49.7387 278.194 50.254C278.283 50.7693 278.52 51.2475 278.876 51.6298L301.972 76.4219C302.473 76.959 303.078 77.3875 303.75 77.6809C304.422 77.9743 305.148 78.1263 305.881 78.1276H415.282C415.804 78.1276 416.314 77.9748 416.751 77.6881C417.188 77.4013 417.531 76.9931 417.739 76.5135C417.947 76.034 418.011 75.504 417.922 74.9887C417.834 74.4734 417.597 73.9952 417.241 73.6129L394.162 48.8208ZM280.835 31.0125H390.241C390.977 31.0129 391.704 30.8616 392.379 30.5682C393.053 30.2747 393.66 29.8454 394.162 29.3068L417.241 4.5147C417.597 4.1324 417.834 3.65421 417.922 3.1389C418.011 2.62358 417.947 2.09359 417.739 1.61404C417.531 1.13449 417.188 0.72626 416.751 0.439521C416.314 0.152781 415.804 1.76584e-05 415.282 0L305.881 0C305.148 0.00125015 304.422 0.153279 303.75 0.446673C303.078 0.740067 302.473 1.16858 301.972 1.70569L278.882 26.4978C278.526 26.8797 278.289 27.3573 278.2 27.8721C278.112 28.3869 278.175 28.9164 278.382 29.3957C278.589 29.875 278.932 30.2833 279.368 30.5705C279.803 30.8577 280.313 31.0113 280.835 31.0125Z" fill="url(#paint0_linear_476_2456)"/>
</g>
</g>
<defs>
<linearGradient id="paint0_linear_476_2456" x1="289.957" y1="128.228" x2="404.898" y2="-1.13265" gradientUnits="userSpaceOnUse">
<stop offset="0.08" stop-color="#9945FF"/>
<stop offset="0.3" stop-color="#8752F3"/>
<stop offset="0.5" stop-color="#5497D5"/>
<stop offset="0.6" stop-color="#43B4CA"/>
<stop offset="0.72" stop-color="#28E0B9"/>
<stop offset="0.97" stop-color="#19FB9B"/>
</linearGradient>
<clipPath id="clip0_476_2456">
<rect width="694.66" height="300" fill="white"/>
</clipPath>
<clipPath id="clip1_476_2456">
<rect width="139.806" height="125.243" fill="white" transform="translate(278.155)"/>
</clipPath>
</defs>
</svg>
