<svg width="242" height="37" viewBox="0 0 242 37" fill="none" xmlns="http://www.w3.org/2000/svg">
<g clip-path="url(#clip0_655_3657)">
<g clip-path="url(#clip1_655_3657)">
<path d="M40.921 28.6016L34.276 35.7166C34.1315 35.8722 33.9567 35.9968 33.7624 36.0828C33.5682 36.1688 33.3584 36.2143 33.146 36.2166H1.646C1.49587 36.2156 1.34925 36.171 1.22397 36.0883C1.09869 36.0055 1.00014 35.8882 0.940298 35.7505C0.880454 35.6128 0.861893 35.4607 0.886871 35.3126C0.911849 35.1646 0.97929 35.027 1.081 34.9166L7.726 27.7916C7.87055 27.6359 8.04529 27.5113 8.23956 27.4253C8.43383 27.3393 8.64357 27.2938 8.856 27.2916H40.356C40.5081 27.2907 40.6571 27.3346 40.7844 27.4179C40.9117 27.5011 41.0117 27.62 41.0719 27.7596C41.1322 27.8993 41.15 28.0536 41.1231 28.2033C41.0963 28.353 41.026 28.4915 40.921 28.6016ZM34.276 14.2516C34.132 14.0952 33.9574 13.9701 33.763 13.8841C33.5686 13.7981 33.3586 13.753 33.146 13.7516H1.646C1.49586 13.7512 1.34891 13.7948 1.22321 13.8769C1.09751 13.959 0.998552 14.076 0.938515 14.2136C0.878477 14.3512 0.859978 14.5034 0.885293 14.6514C0.910608 14.7994 0.978633 14.9367 1.081 15.0466L7.726 22.1816C7.87 22.3379 8.04462 22.463 8.23902 22.549C8.43341 22.635 8.64343 22.6802 8.856 22.6816H40.356C40.5061 22.6819 40.6531 22.6383 40.7788 22.5562C40.9045 22.4741 41.0035 22.3571 41.0635 22.2195C41.1235 22.0819 41.142 21.9297 41.1167 21.7817C41.0914 21.6337 41.0234 21.4964 40.921 21.3866L34.276 14.2516ZM1.646 9.13155H33.146C33.3584 9.12927 33.5682 9.08376 33.7624 8.9978C33.9567 8.91184 34.1315 8.78723 34.276 8.63155L40.921 1.51655C41.0227 1.40612 41.0902 1.26852 41.1151 1.12047C41.1401 0.972428 41.1215 0.820317 41.0617 0.682623C41.0019 0.54493 40.9033 0.427583 40.778 0.344844C40.6528 0.262105 40.5061 0.217535 40.356 0.216553L8.856 0.216553C8.64357 0.218836 8.43383 0.264344 8.23956 0.350305C8.04529 0.436265 7.87055 0.560879 7.726 0.716553L1.081 7.83155C0.97929 7.94199 0.911849 8.07959 0.886871 8.22763C0.861893 8.37568 0.880454 8.52779 0.940298 8.66548C1.00014 8.80318 1.09869 8.92052 1.22397 9.00326C1.34925 9.086 1.49587 9.13057 1.646 9.13155Z" fill="white"/>
<path d="M79.116 15.4166H62.276V9.81655H83.501V4.21655H62.236C60.7614 4.21655 59.3472 4.80234 58.3045 5.84504C57.2618 6.88774 56.676 8.30195 56.676 9.77655V15.4566C56.676 16.1867 56.8198 16.9097 57.0993 17.5843C57.3787 18.2588 57.7882 18.8718 58.3045 19.3881C59.3472 20.4308 60.7614 21.0166 62.236 21.0166H79.076V26.6166H57.076V32.2166H79.116C80.5906 32.2166 82.0048 31.6308 83.0475 30.5881C84.0902 29.5454 84.676 28.1312 84.676 26.6566V20.9766C84.676 20.2464 84.5322 19.5234 84.2528 18.8488C83.9734 18.1743 83.5638 17.5613 83.0475 17.045C82.5313 16.5287 81.9183 16.1192 81.2438 15.8398C80.5692 15.5604 79.8462 15.4166 79.116 15.4166Z" fill="white"/>
<path d="M111.706 4.21655H94.821C93.3464 4.21655 91.9322 4.80234 90.8895 5.84504C89.8468 6.88774 89.261 8.30195 89.261 9.77655V26.6566C89.261 28.1312 89.8468 29.5454 90.8895 30.5881C91.9322 31.6308 93.3464 32.2166 94.821 32.2166H111.706C112.436 32.2166 113.159 32.0727 113.833 31.7932C114.507 31.5138 115.12 31.1041 115.636 30.5878C116.152 30.0714 116.561 29.4584 116.84 28.7839C117.118 28.1094 117.262 27.3865 117.261 26.6566V9.77655C117.262 9.04664 117.118 8.32375 116.84 7.64921C116.561 6.97467 116.152 6.3617 115.636 5.84534C115.12 5.32898 114.507 4.91936 113.833 4.63988C113.159 4.3604 112.436 4.21655 111.706 4.21655ZM111.661 26.6166H94.861V9.81655H111.661V26.6166Z" fill="white"/>
<path d="M170.871 4.21655H154.371C153.641 4.21655 152.918 4.36037 152.243 4.63978C151.569 4.9192 150.956 5.32875 150.44 5.84504C149.923 6.36133 149.514 6.97426 149.234 7.64883C148.955 8.3234 148.811 9.0464 148.811 9.77655V32.2166H154.411V23.0166H170.811V32.2166H176.411V9.77655C176.411 8.30541 175.828 6.89422 174.79 5.85209C173.751 4.80996 172.342 4.22184 170.871 4.21655ZM170.831 17.4166H154.431V9.81655H170.831V17.4166Z" fill="white"/>
<path d="M236.441 4.21655H219.941C218.47 4.22184 217.061 4.80996 216.023 5.85209C214.984 6.89422 214.401 8.30541 214.401 9.77655V32.2166H220.001V23.0166H236.401V32.2166H242.001V9.77655C242.001 9.0464 241.857 8.3234 241.578 7.64883C241.298 6.97426 240.889 6.36133 240.373 5.84504C239.856 5.32875 239.243 4.9192 238.569 4.63978C237.894 4.36037 237.171 4.21655 236.441 4.21655ZM236.401 17.4166H220.001V9.81655H236.401V17.4166Z" fill="white"/>
<path d="M203.816 26.6166H201.576L193.576 6.54662C193.298 5.85495 192.819 5.26287 192.2 4.84734C191.581 4.43181 190.852 4.21205 190.106 4.21662H185.106C184.123 4.21662 183.181 4.60697 182.486 5.30179C181.791 5.99661 181.401 6.939 181.401 7.92162V32.2166H187.001V9.81662H189.241L197.271 29.8866C197.547 30.5767 198.024 31.1679 198.64 31.5834C199.256 31.9989 199.983 32.2196 200.726 32.2166H205.726C206.213 32.2166 206.694 32.1208 207.144 31.9346C207.593 31.7484 208.002 31.4755 208.346 31.1315C208.69 30.7874 208.963 30.379 209.149 29.9295C209.335 29.48 209.431 28.9982 209.431 28.5116V4.21662H203.831L203.816 26.6166Z" fill="white"/>
<path d="M127.846 4.21655H122.246V26.6566C122.246 28.1312 122.832 29.5454 123.875 30.5881C124.917 31.6308 126.331 32.2166 127.806 32.2166H144.646V26.6166H127.846V4.21655Z" fill="white"/>
</g>
</g>
<defs>
<clipPath id="clip0_655_3657">
<rect width="242" height="36" fill="white" transform="translate(0.000976562 0.216553)"/>
</clipPath>
<clipPath id="clip1_655_3657">
<rect width="242" height="36" fill="white" transform="translate(0.000976562 0.216553)"/>
</clipPath>
</defs>
</svg>
