<svg width="121" height="18" viewBox="0 0 121 18" fill="none" xmlns="http://www.w3.org/2000/svg">
<g clip-path="url(#clip0_655_3527)">
<mask id="mask0_655_3527" style="mask-type:luminance" maskUnits="userSpaceOnUse" x="0" y="0" width="121" height="18">
<path d="M121 0H0V18H121V0Z" fill="white"/>
</mask>
<g mask="url(#mask0_655_3527)">
<path d="M20.46 14.19L17.14 17.75C17.0676 17.8291 16.9795 17.8921 16.8814 17.9352C16.7832 17.9782 16.6772 18.0003 16.57 18H0.819991C0.745614 17.998 0.673365 17.9747 0.611771 17.933C0.550177 17.8913 0.501807 17.8328 0.472371 17.7644C0.442935 17.6961 0.43366 17.6208 0.445642 17.5473C0.457623 17.4739 0.490361 17.4054 0.539991 17.35L3.85999 13.79C3.93237 13.711 4.02045 13.6479 4.11861 13.6048C4.21676 13.5618 4.32281 13.5397 4.42999 13.54H20.18C20.2544 13.542 20.3266 13.5653 20.3882 13.607C20.4498 13.6487 20.4982 13.7072 20.5276 13.7756C20.557 13.8439 20.5663 13.9192 20.5543 13.9927C20.5424 14.0661 20.5096 14.1346 20.46 14.19ZM17.14 7C17.0676 6.92096 16.9795 6.85789 16.8814 6.81484C16.7832 6.77179 16.6772 6.74971 16.57 6.75H0.819991C0.745614 6.75202 0.673365 6.77527 0.611771 6.81701C0.550177 6.85874 0.501807 6.91723 0.472371 6.98557C0.442935 7.0539 0.43366 7.12923 0.445642 7.20266C0.457623 7.2761 0.490361 7.34457 0.539991 7.4L3.85999 11C3.93237 11.079 4.02045 11.1421 4.11861 11.1852C4.21676 11.2282 4.32281 11.2503 4.42999 11.25H20.18C20.2544 11.248 20.3266 11.2247 20.3882 11.183C20.4498 11.1413 20.4982 11.0828 20.5276 11.0144C20.557 10.9461 20.5663 10.8708 20.5543 10.7973C20.5424 10.7239 20.5096 10.6554 20.46 10.6L17.14 7ZM0.819991 4.46H16.57C16.6772 4.4603 16.7832 4.43821 16.8814 4.39516C16.9795 4.35211 17.0676 4.28905 17.14 4.21L20.46 0.650003C20.5096 0.594569 20.5424 0.526096 20.5543 0.452662C20.5663 0.379229 20.557 0.303901 20.5276 0.235567C20.4982 0.167233 20.4498 0.108745 20.3882 0.0670057C20.3266 0.0252665 20.2544 0.00201769 20.18 2.88179e-06H4.42999C4.32281 -0.000290328 4.21676 0.0217942 4.11861 0.0648431C4.02045 0.107892 3.93237 0.170957 3.85999 0.250003L0.539991 3.81C0.490361 3.86544 0.457623 3.93391 0.445642 4.00734C0.43366 4.08078 0.442935 4.15611 0.472371 4.22444C0.501807 4.29277 0.550177 4.35126 0.611771 4.393C0.673365 4.43474 0.745614 4.45799 0.819991 4.46Z" fill="black"/>
<path d="M39.56 7.60002H31.14V4.80002H41.74V2.00002H31.12C30.7545 1.9987 30.3924 2.0697 30.0546 2.20894C29.7167 2.34818 29.4097 2.5529 29.1513 2.81131C28.8929 3.06972 28.6881 3.37671 28.5489 3.7146C28.4097 4.05248 28.3387 4.41457 28.34 4.78002V7.62002C28.3387 7.98546 28.4097 8.34756 28.5489 8.68544C28.6881 9.02332 28.8929 9.33031 29.1513 9.58872C29.4097 9.84713 29.7167 10.0519 30.0546 10.1911C30.3924 10.3303 30.7545 10.4013 31.12 10.4H39.54V13.2H28.54V16H39.54C40.2773 16 40.9844 15.7071 41.5057 15.1858C42.0271 14.6644 42.32 13.9573 42.32 13.22V10.38C42.32 9.64617 42.0299 8.94208 41.5128 8.4213C40.9958 7.90052 40.2938 7.6053 39.56 7.60002Z" fill="black"/>
<path d="M55.85 2.00002H47.41C46.6727 2.00002 45.9656 2.29291 45.4442 2.81426C44.9229 3.33561 44.63 4.04272 44.63 4.78002V13.22C44.63 13.9573 44.9229 14.6644 45.4442 15.1858C45.9656 15.7071 46.6727 16 47.41 16H55.85C56.2154 16.0013 56.5775 15.9303 56.9154 15.7911C57.2533 15.6519 57.5603 15.4471 57.8187 15.1887C58.0771 14.9303 58.2818 14.6233 58.4211 14.2854C58.5603 13.9476 58.6313 13.5855 58.63 13.22V4.78002C58.6313 4.41457 58.5603 4.05248 58.4211 3.7146C58.2818 3.37671 58.0771 3.06972 57.8187 2.81131C57.5603 2.5529 57.2533 2.34818 56.9154 2.20894C56.5775 2.0697 56.2154 1.9987 55.85 2.00002ZM55.85 13.2H47.45V4.80002H55.85V13.2Z" fill="black"/>
<path d="M85.4399 2.00002H77.1999C76.8345 1.9987 76.4724 2.0697 76.1345 2.20894C75.7966 2.34818 75.4896 2.5529 75.2312 2.81131C74.9728 3.06972 74.7681 3.37671 74.6288 3.7146C74.4896 4.05248 74.4186 4.41457 74.4199 4.78002V16H77.2199V11.4H85.4199V16H88.2199V4.78002C88.2199 4.04272 87.927 3.33561 87.4057 2.81426C86.8843 2.29291 86.1772 2.00002 85.4399 2.00002ZM85.4399 8.60002H77.2399V4.80002H85.4399V8.60002Z" fill="black"/>
<path d="M118.22 2.00002H110C109.635 1.9987 109.272 2.0697 108.935 2.20894C108.597 2.34818 108.29 2.5529 108.031 2.81131C107.773 3.06972 107.568 3.37671 107.429 3.7146C107.29 4.05248 107.219 4.41457 107.22 4.78002V16H110V11.4H118.2V16H121V4.78002C121.001 4.41457 120.93 4.05248 120.791 3.7146C120.652 3.37671 120.447 3.06972 120.189 2.81131C119.93 2.5529 119.623 2.34818 119.285 2.20894C118.948 2.0697 118.585 1.9987 118.22 2.00002ZM118.22 8.60002H110V4.80002H118.2L118.22 8.60002Z" fill="black"/>
<path d="M101.91 13.2H100.79L96.79 3.20002C96.6573 2.84623 96.4193 2.54159 96.1083 2.32706C95.7972 2.11252 95.4279 1.99839 95.05 2.00002H92.56C92.0694 2.00002 91.5988 2.19493 91.2519 2.54187C90.9049 2.88881 90.71 3.35937 90.71 3.85002V16H93.51V4.80002H94.63L98.63 14.8C98.7622 15.1522 98.9986 15.4557 99.3077 15.6701C99.6168 15.8845 99.9839 15.9996 100.36 16H102.85C103.094 16.0013 103.335 15.9545 103.561 15.8621C103.787 15.7697 103.992 15.6336 104.165 15.4617C104.337 15.2898 104.475 15.0854 104.568 14.8603C104.662 14.6352 104.71 14.3938 104.71 14.15V2.00002H101.91V13.2Z" fill="black"/>
<path d="M63.92 2H61.12V13.22C61.12 13.9573 61.4129 14.6644 61.9342 15.1858C62.4556 15.7071 63.1627 16 63.9 16H72.32V13.2H63.92V2Z" fill="black"/>
</g>
</g>
<defs>
<clipPath id="clip0_655_3527">
<rect width="121" height="18" fill="white"/>
</clipPath>
</defs>
</svg>
