<svg width="484" height="73" viewBox="0 0 484 73" fill="none" xmlns="http://www.w3.org/2000/svg">
<g clip-path="url(#clip0_655_3593)">
<g clip-path="url(#clip1_655_3593)">
<path d="M81.84 57.2031L68.55 71.4331C68.2609 71.7445 67.9115 71.9937 67.5229 72.1656C67.1344 72.3375 66.7149 72.4285 66.29 72.4331H3.29004C2.98978 72.4311 2.69655 72.342 2.44599 72.1765C2.19543 72.011 1.99833 71.7764 1.87864 71.501C1.75896 71.2256 1.72183 70.9214 1.77179 70.6253C1.82174 70.3292 1.95663 70.054 2.16004 69.8331L15.45 55.5831C15.7392 55.2718 16.0886 55.0225 16.4772 54.8506C16.8657 54.6787 17.2852 54.5877 17.71 54.5831H80.71C81.0142 54.5814 81.3122 54.6693 81.5668 54.8357C81.8214 55.0022 82.0214 55.2399 82.1419 55.5192C82.2624 55.7986 82.298 56.1072 82.2443 56.4066C82.1906 56.706 82.05 56.983 81.84 57.2031ZM68.55 28.5031C68.2621 28.1904 67.9128 27.9402 67.524 27.7682C67.1352 27.5961 66.7152 27.5059 66.29 27.5031H3.29004C2.98977 27.5024 2.69586 27.5896 2.44446 27.7537C2.19306 27.9179 1.99515 28.1521 1.87508 28.4273C1.755 28.7025 1.718 29.0068 1.76863 29.3028C1.81926 29.5987 1.95531 29.8735 2.16004 30.0931L15.45 44.3631C15.738 44.6759 16.0873 44.926 16.4761 45.0981C16.8649 45.2701 17.2849 45.3603 17.71 45.3631H80.71C81.0103 45.3638 81.3042 45.2767 81.5556 45.1125C81.807 44.9483 82.0049 44.7142 82.125 44.4389C82.2451 44.1637 82.2821 43.8594 82.2315 43.5634C82.1808 43.2675 82.0448 42.9928 81.84 42.7731L68.55 28.5031ZM3.29004 18.2631H66.29C66.7149 18.2585 67.1344 18.1675 67.5229 17.9956C67.9115 17.8237 68.2609 17.5745 68.55 17.2631L81.84 3.03311C82.0435 2.81223 82.1783 2.53703 82.2283 2.24094C82.2783 1.94486 82.2411 1.64063 82.1214 1.36525C82.0018 1.08986 81.8047 0.855166 81.5541 0.689688C81.3035 0.524209 81.0103 0.435071 80.71 0.433105L17.71 0.433105C17.2852 0.437671 16.8657 0.528688 16.4772 0.700609C16.0886 0.872531 15.7392 1.12176 15.45 1.43311L2.16004 15.6631C1.95663 15.884 1.82174 16.1592 1.77179 16.4553C1.72183 16.7514 1.75896 17.0556 1.87864 17.331C1.99833 17.6064 2.19543 17.841 2.44599 18.0065C2.69655 18.172 2.98978 18.2611 3.29004 18.2631Z" fill="url(#paint0_linear_655_3593)"/>
<path d="M158.23 30.8331H124.55V19.6331H167V8.43311H124.47C121.521 8.43311 118.692 9.60467 116.607 11.6901C114.522 13.7755 113.35 16.6039 113.35 19.5531V30.9131C113.35 32.3734 113.638 33.8194 114.197 35.1685C114.755 36.5177 115.574 37.7435 116.607 38.7761C118.692 40.8615 121.521 42.0331 124.47 42.0331H158.15V53.2331H114.15V64.4331H158.23C161.179 64.4331 164.008 63.2615 166.093 61.1761C168.179 59.0907 169.35 56.2623 169.35 53.3131V41.9531C169.35 40.4928 169.062 39.0468 168.504 37.6977C167.945 36.3485 167.126 35.1227 166.093 34.0901C165.061 33.0575 163.835 32.2384 162.486 31.6796C161.136 31.1207 159.69 30.8331 158.23 30.8331Z" fill="white"/>
<path d="M223.41 8.43311H189.64C186.691 8.43311 183.862 9.60467 181.777 11.6901C179.692 13.7755 178.52 16.6039 178.52 19.5531V53.3131C178.52 56.2623 179.692 59.0907 181.777 61.1761C183.862 63.2615 186.691 64.4331 189.64 64.4331H223.41C224.87 64.4331 226.315 64.1454 227.664 63.5865C229.013 63.0275 230.238 62.2082 231.27 61.1755C232.301 60.1428 233.119 58.9169 233.677 57.5678C234.235 56.2187 234.521 54.7729 234.52 53.3131V19.5531C234.521 18.0933 234.235 16.6475 233.677 15.2984C233.119 13.9493 232.301 12.7234 231.27 11.6907C230.238 10.658 229.013 9.83871 227.664 9.27976C226.315 8.7208 224.87 8.4331 223.41 8.43311ZM223.32 53.2331H189.72V19.6331H223.32V53.2331Z" fill="white"/>
<path d="M341.74 8.43311H308.74C307.28 8.43311 305.834 8.72073 304.485 9.27956C303.136 9.8384 301.91 10.6575 300.877 11.6901C299.845 12.7227 299.025 13.9485 298.467 15.2977C297.908 16.6468 297.62 18.0928 297.62 19.5531V64.4331H308.82V46.0331H341.62V64.4331H352.82V19.5531C352.82 16.6108 351.654 13.7884 349.577 11.7042C347.501 9.61993 344.682 8.44369 341.74 8.43311ZM341.66 34.8331H308.86V19.6331H341.66V34.8331Z" fill="white"/>
<path d="M472.88 8.43311H439.88C436.938 8.44369 434.119 9.61993 432.043 11.7042C429.966 13.7884 428.8 16.6108 428.8 19.5531V64.4331H440V46.0331H472.8V64.4331H484V19.5531C484 18.0928 483.712 16.6468 483.153 15.2977C482.595 13.9485 481.775 12.7227 480.743 11.6901C479.71 10.6575 478.484 9.8384 477.135 9.27956C475.786 8.72073 474.34 8.43311 472.88 8.43311ZM472.8 34.8331H440V19.6331H472.8V34.8331Z" fill="white"/>
<path d="M407.63 53.233H403.15L387.15 13.093C386.594 11.7097 385.635 10.5255 384.397 9.69444C383.16 8.86337 381.701 8.42385 380.21 8.433H370.21C368.245 8.433 366.36 9.2137 364.97 10.6033C363.581 11.993 362.8 13.8777 362.8 15.843V64.433H374V19.633H378.48L394.54 59.773C395.091 61.1532 396.045 62.3356 397.278 63.1666C398.51 63.9976 399.964 64.4389 401.45 64.433H411.45C412.423 64.433 413.386 64.2413 414.285 63.8689C415.185 63.4966 416.001 62.9507 416.689 62.2627C417.378 61.5746 417.923 60.7577 418.296 59.8587C418.668 58.9597 418.86 57.9961 418.86 57.023V8.433H407.66L407.63 53.233Z" fill="white"/>
<path d="M255.69 8.43311H244.49V53.3131C244.49 56.2623 245.662 59.0907 247.747 61.1761C249.833 63.2615 252.661 64.4331 255.61 64.4331H289.29V53.2331H255.69V8.43311Z" fill="white"/>
</g>
</g>
<defs>
<linearGradient id="paint0_linear_655_3593" x1="8.54004" y1="74.1531" x2="74.61" y2="-0.326892" gradientUnits="userSpaceOnUse">
<stop offset="0.08" stop-color="#9945FF"/>
<stop offset="0.3" stop-color="#8752F3"/>
<stop offset="0.5" stop-color="#5497D5"/>
<stop offset="0.6" stop-color="#43B4CA"/>
<stop offset="0.72" stop-color="#28E0B9"/>
<stop offset="0.97" stop-color="#19FB9B"/>
</linearGradient>
<clipPath id="clip0_655_3593">
<rect width="484" height="72" fill="white" transform="translate(0 0.433105)"/>
</clipPath>
<clipPath id="clip1_655_3593">
<rect width="484" height="72" fill="white" transform="translate(0 0.433105)"/>
</clipPath>
</defs>
</svg>
