<svg width="323" height="48" viewBox="0 0 323 48" fill="none" xmlns="http://www.w3.org/2000/svg">
<g clip-path="url(#clip0_655_3491)">
<mask id="mask0_655_3491" style="mask-type:luminance" maskUnits="userSpaceOnUse" x="0" y="0" width="323" height="48">
<path d="M323 0H0V48H323V0Z" fill="white"/>
</mask>
<g mask="url(#mask0_655_3491)">
<path d="M54.2699 37.84L45.4099 47.35C45.2149 47.5544 44.9806 47.7172 44.7211 47.8289C44.4617 47.9406 44.1824 47.9988 43.8999 48H1.89993C1.69364 48.0143 1.48799 47.9643 1.3113 47.8569C1.13461 47.7495 0.99557 47.5899 0.91332 47.4002C0.83107 47.2105 0.809658 46.9999 0.852032 46.7975C0.894405 46.5951 0.99848 46.4108 1.14993 46.27L9.99993 36.77C10.193 36.5625 10.4266 36.3968 10.6864 36.2833C10.9461 36.1698 11.2264 36.1108 11.5099 36.11H53.5099C53.717 36.0934 53.9242 36.1417 54.1026 36.2483C54.2811 36.3549 54.4218 36.5144 54.5054 36.7046C54.589 36.8949 54.6112 37.1065 54.569 37.31C54.5268 37.5134 54.4223 37.6987 54.2699 37.84ZM45.4099 18.71C45.2163 18.5038 44.9823 18.3397 44.7225 18.2279C44.4627 18.116 44.1827 18.0589 43.8999 18.06H1.89993C1.69364 18.0457 1.48799 18.0957 1.3113 18.2032C1.13461 18.3106 0.99557 18.4702 0.91332 18.6599C0.83107 18.8496 0.809658 19.0602 0.852032 19.2626C0.894405 19.465 0.99848 19.6492 1.14993 19.79L9.99993 29.29C10.1935 29.4962 10.4275 29.6604 10.6872 29.7722C10.947 29.884 11.2271 29.9412 11.5099 29.94H53.5099C53.717 29.9567 53.9242 29.9083 54.1026 29.8018C54.2811 29.6952 54.4218 29.5357 54.5054 29.3454C54.589 29.1552 54.6112 28.9436 54.569 28.7401C54.5268 28.5366 54.4223 28.3513 54.2699 28.21L45.4099 18.71ZM1.89993 11.89H43.8999C44.1834 11.8893 44.4637 11.8303 44.7234 11.7168C44.9831 11.6032 45.2168 11.4376 45.4099 11.23L54.2699 1.73003C54.4223 1.58871 54.5268 1.40344 54.569 1.19995C54.6112 0.996468 54.589 0.784887 54.5054 0.59462C54.4218 0.404354 54.2811 0.244855 54.1026 0.138295C53.9242 0.0317349 53.717 -0.0165922 53.5099 3.14005e-05H11.5099C11.2274 0.00125066 10.9481 0.0594449 10.6886 0.171131C10.4292 0.282818 10.1949 0.4457 9.99993 0.650031L1.14993 10.16C0.99848 10.3008 0.894405 10.4851 0.852032 10.6875C0.809658 10.8899 0.83107 11.1005 0.91332 11.2902C0.99557 11.4799 1.13461 11.6395 1.3113 11.7469C1.48799 11.8543 1.69364 11.9043 1.89993 11.89Z" fill="black"/>
<path d="M105.47 20.3001H83V12.9001H111.31V5.50011H82.93C81.9595 5.49484 80.9975 5.68078 80.0989 6.0473C79.2003 6.41383 78.3827 6.95376 77.6927 7.63627C77.0028 8.31879 76.454 9.13051 76.0778 10.0251C75.7016 10.9197 75.5052 11.8796 75.5 12.8501V20.3501C75.5052 21.3206 75.7016 22.2805 76.0778 23.1751C76.454 24.0697 77.0028 24.8814 77.6927 25.5639C78.3827 26.2465 79.2003 26.7864 80.0989 27.1529C80.9975 27.5194 81.9595 27.7054 82.93 27.7001H105.42V35.1001H76V42.5001H105.44C106.41 42.5054 107.372 42.3194 108.27 41.9527C109.168 41.5861 109.985 41.046 110.674 40.3633C111.363 39.6807 111.911 38.8689 112.286 37.9744C112.661 37.0798 112.856 36.1201 112.86 35.1501V27.6501C112.852 25.6963 112.07 23.8253 110.684 22.4475C109.299 21.0697 107.424 20.2974 105.47 20.3001Z" fill="black"/>
<path d="M149 5.5H126.45C125.478 5.49209 124.514 5.67608 123.613 6.04142C122.712 6.40676 121.892 6.94627 121.2 7.62905C120.508 8.31182 119.957 9.12444 119.58 10.0203C119.202 10.9163 119.005 11.8778 119 12.85V35.15C119.005 36.1205 119.202 37.0804 119.578 37.975C119.954 38.8696 120.503 39.6813 121.193 40.3638C121.883 41.0463 122.7 41.5863 123.599 41.9528C124.498 42.3193 125.46 42.5053 126.43 42.5H149C149.97 42.5053 150.932 42.3193 151.83 41.9526C152.728 41.586 153.545 41.0459 154.234 40.3632C154.923 39.6806 155.471 38.8688 155.846 37.9743C156.221 37.0797 156.416 36.12 156.42 35.15V12.85C156.416 11.88 156.221 10.9203 155.846 10.0258C155.471 9.13122 154.923 8.31941 154.234 7.63677C153.545 6.95413 152.728 6.41404 151.83 6.04739C150.932 5.68074 149.97 5.49473 149 5.5ZM148.95 35.1H126.5V12.9H148.94L148.95 35.1Z" fill="black"/>
<path d="M228 5.49995H206C205.03 5.49468 204.068 5.68062 203.169 6.04714C202.27 6.41366 201.453 6.9536 200.763 7.63611C200.073 8.31862 199.524 9.13035 199.148 10.0249C198.772 10.9195 198.575 11.8795 198.57 12.8499V42.4999H206.05V30.3399H228V42.4999H235.48V12.8499C235.476 11.8748 235.279 10.9102 234.9 10.0117C234.521 9.11321 233.968 8.29871 233.273 7.61528C232.577 6.93184 231.753 6.39302 230.848 6.02994C229.943 5.66686 228.975 5.48673 228 5.49995ZM228 22.9399H206.1V12.9399H228V22.9399Z" fill="black"/>
<path d="M315.57 5.50011H293.57C292.6 5.49484 291.638 5.68078 290.739 6.0473C289.84 6.41383 289.023 6.95376 288.333 7.63627C287.643 8.31879 287.094 9.13051 286.718 10.0251C286.342 10.9197 286.145 11.8796 286.14 12.8501V42.5001H293.62V30.3401H315.52V42.5001H323V12.8501C322.995 11.8796 322.798 10.9197 322.422 10.0251C322.046 9.13051 321.497 8.31879 320.807 7.63627C320.117 6.95376 319.3 6.41383 318.401 6.0473C317.502 5.68078 316.54 5.49484 315.57 5.50011ZM315.52 22.9401H293.62V12.9401H315.52V22.9401Z" fill="black"/>
<path d="M272 35.1H269L258.29 8.58004C257.919 7.66757 257.284 6.88678 256.466 6.33796C255.648 5.78914 254.685 5.49734 253.7 5.50004H247C245.694 5.49472 244.44 6.00767 243.512 6.92631C242.584 7.84496 242.058 9.09426 242.05 10.4V42.5H249.53V12.9H252.53L263.25 39.42C263.628 40.3294 264.266 41.1068 265.085 41.6548C265.903 42.2027 266.865 42.4968 267.85 42.5H274.5C275.151 42.5106 275.798 42.3919 276.403 42.1506C277.008 41.9094 277.559 41.5504 278.024 41.0946C278.489 40.6388 278.859 40.0952 279.112 39.4953C279.366 38.8955 279.497 38.2512 279.5 37.6V5.50004H272V35.1Z" fill="black"/>
<path d="M170.55 5.5H163.07V35.15C163.075 36.1205 163.272 37.0804 163.648 37.975C164.024 38.8696 164.573 39.6813 165.263 40.3638C165.953 41.0463 166.77 41.5863 167.669 41.9528C168.568 42.3193 169.53 42.5053 170.5 42.5H193V35.1H170.55V5.5Z" fill="black"/>
</g>
</g>
<defs>
<clipPath id="clip0_655_3491">
<rect width="323" height="48" fill="white"/>
</clipPath>
</defs>
</svg>
