<svg width="242" height="37" viewBox="0 0 242 37" fill="none" xmlns="http://www.w3.org/2000/svg">
<g clip-path="url(#clip0_655_3655)">
<g clip-path="url(#clip1_655_3655)">
<path d="M40.9203 28.6016L34.2753 35.7166C34.1307 35.8722 33.956 35.9968 33.7617 36.0828C33.5674 36.1688 33.3577 36.2143 33.1453 36.2166H1.64527C1.49513 36.2156 1.34852 36.171 1.22324 36.0883C1.09796 36.0055 0.999409 35.8882 0.939565 35.7505C0.879722 35.6128 0.861161 35.4607 0.886139 35.3126C0.911117 35.1646 0.978558 35.027 1.08027 34.9166L7.72527 27.7916C7.86982 27.6359 8.04456 27.5113 8.23883 27.4253C8.4331 27.3393 8.64284 27.2938 8.85527 27.2916H40.3553C40.5074 27.2907 40.6564 27.3346 40.7837 27.4179C40.911 27.5011 41.011 27.62 41.0712 27.7596C41.1314 27.8993 41.1493 28.0536 41.1224 28.2033C41.0956 28.353 41.0253 28.4915 40.9203 28.6016ZM34.2753 14.2516C34.1313 14.0952 33.9566 13.9701 33.7622 13.8841C33.5679 13.7981 33.3578 13.753 33.1453 13.7516H1.64527C1.49513 13.7512 1.34817 13.7948 1.22247 13.8769C1.09678 13.959 0.997819 14.076 0.937782 14.2136C0.877745 14.3512 0.859245 14.5034 0.884561 14.6514C0.909876 14.7994 0.977901 14.9367 1.08027 15.0466L7.72527 22.1816C7.86927 22.3379 8.04389 22.463 8.23829 22.549C8.43268 22.635 8.64269 22.6802 8.85527 22.6816H40.3553C40.5054 22.6819 40.6524 22.6383 40.7781 22.5562C40.9038 22.4741 41.0027 22.3571 41.0628 22.2195C41.1228 22.0819 41.1413 21.9297 41.116 21.7817C41.0907 21.6337 41.0226 21.4964 40.9203 21.3866L34.2753 14.2516ZM1.64527 9.13155H33.1453C33.3577 9.12927 33.5674 9.08376 33.7617 8.9978C33.956 8.91184 34.1307 8.78723 34.2753 8.63155L40.9203 1.51655C41.022 1.40612 41.0894 1.26852 41.1144 1.12047C41.1394 0.972428 41.1208 0.820317 41.061 0.682623C41.0011 0.54493 40.9026 0.427583 40.7773 0.344844C40.652 0.262105 40.5054 0.217535 40.3553 0.216553L8.85527 0.216553C8.64284 0.218836 8.4331 0.264344 8.23883 0.350305C8.04456 0.436265 7.86982 0.560879 7.72527 0.716553L1.08027 7.83155C0.978558 7.94199 0.911117 8.07959 0.886139 8.22763C0.861161 8.37568 0.879722 8.52779 0.939565 8.66548C0.999409 8.80318 1.09796 8.92052 1.22324 9.00326C1.34852 9.086 1.49513 9.13057 1.64527 9.13155Z" fill="url(#paint0_linear_655_3655)"/>
<path d="M79.1153 15.4166H62.2753V9.81655H83.5003V4.21655H62.2353C60.7607 4.21655 59.3465 4.80234 58.3038 5.84504C57.2611 6.88774 56.6753 8.30195 56.6753 9.77655V15.4566C56.6753 16.1867 56.8191 16.9097 57.0985 17.5843C57.3779 18.2588 57.7875 18.8718 58.3038 19.3881C59.3465 20.4308 60.7607 21.0166 62.2353 21.0166H79.0753V26.6166H57.0753V32.2166H79.1153C80.5899 32.2166 82.0041 31.6308 83.0468 30.5881C84.0895 29.5454 84.6753 28.1312 84.6753 26.6566V20.9766C84.6753 20.2464 84.5315 19.5234 84.2521 18.8488C83.9727 18.1743 83.5631 17.5613 83.0468 17.045C82.5305 16.5287 81.9176 16.1192 81.243 15.8398C80.5684 15.5604 79.8454 15.4166 79.1153 15.4166Z" fill="black"/>
<path d="M111.705 4.21655H94.8203C93.3456 4.21655 91.9314 4.80234 90.8887 5.84504C89.846 6.88774 89.2603 8.30195 89.2603 9.77655V26.6566C89.2603 28.1312 89.846 29.5454 90.8887 30.5881C91.9314 31.6308 93.3456 32.2166 94.8203 32.2166H111.705C112.435 32.2166 113.158 32.0727 113.832 31.7932C114.507 31.5138 115.119 31.1041 115.635 30.5878C116.151 30.0714 116.56 29.4584 116.839 28.7839C117.118 28.1094 117.261 27.3865 117.26 26.6566V9.77655C117.261 9.04664 117.118 8.32375 116.839 7.64921C116.56 6.97467 116.151 6.3617 115.635 5.84534C115.119 5.32898 114.507 4.91936 113.832 4.63988C113.158 4.3604 112.435 4.21655 111.705 4.21655ZM111.66 26.6166H94.8603V9.81655H111.66V26.6166Z" fill="black"/>
<path d="M170.87 4.21655H154.37C153.64 4.21655 152.917 4.36037 152.242 4.63978C151.568 4.9192 150.955 5.32875 150.439 5.84504C149.922 6.36133 149.513 6.97426 149.233 7.64883C148.954 8.3234 148.81 9.0464 148.81 9.77655V32.2166H154.41V23.0166H170.81V32.2166H176.41V9.77655C176.41 8.30541 175.827 6.89422 174.789 5.85209C173.75 4.80996 172.341 4.22184 170.87 4.21655ZM170.83 17.4166H154.43V9.81655H170.83V17.4166Z" fill="black"/>
<path d="M236.44 4.21655H219.94C218.469 4.22184 217.06 4.80996 216.021 5.85209C214.983 6.89422 214.4 8.30541 214.4 9.77655V32.2166H220V23.0166H236.4V32.2166H242V9.77655C242 9.0464 241.856 8.3234 241.577 7.64883C241.297 6.97426 240.888 6.36133 240.371 5.84504C239.855 5.32875 239.242 4.9192 238.568 4.63978C237.893 4.36037 237.17 4.21655 236.44 4.21655ZM236.4 17.4166H220V9.81655H236.4V17.4166Z" fill="black"/>
<path d="M203.815 26.6166H201.575L193.575 6.54662C193.297 5.85495 192.818 5.26287 192.199 4.84734C191.58 4.43181 190.85 4.21205 190.105 4.21662H185.105C184.122 4.21662 183.18 4.60697 182.485 5.30179C181.79 5.99661 181.4 6.939 181.4 7.92162V32.2166H187V9.81662H189.24L197.27 29.8866C197.546 30.5767 198.023 31.1679 198.639 31.5834C199.255 31.9989 199.982 32.2196 200.725 32.2166H205.725C206.211 32.2166 206.693 32.1208 207.143 31.9346C207.592 31.7484 208.001 31.4755 208.345 31.1315C208.689 30.7874 208.962 30.379 209.148 29.9295C209.334 29.48 209.43 28.9982 209.43 28.5116V4.21662H203.83L203.815 26.6166Z" fill="black"/>
<path d="M127.845 4.21655H122.245V26.6566C122.245 28.1312 122.831 29.5454 123.874 30.5881C124.916 31.6308 126.331 32.2166 127.805 32.2166H144.645V26.6166H127.845V4.21655Z" fill="black"/>
</g>
</g>
<defs>
<linearGradient id="paint0_linear_655_3655" x1="4.27027" y1="37.0766" x2="37.3053" y2="-0.163446" gradientUnits="userSpaceOnUse">
<stop offset="0.08" stop-color="#9945FF"/>
<stop offset="0.3" stop-color="#8752F3"/>
<stop offset="0.5" stop-color="#5497D5"/>
<stop offset="0.6" stop-color="#43B4CA"/>
<stop offset="0.72" stop-color="#28E0B9"/>
<stop offset="0.97" stop-color="#19FB9B"/>
</linearGradient>
<clipPath id="clip0_655_3655">
<rect width="242" height="36" fill="white" transform="translate(0 0.216553)"/>
</clipPath>
<clipPath id="clip1_655_3655">
<rect width="242" height="36" fill="white" transform="translate(0 0.216553)"/>
</clipPath>
</defs>
</svg>
