<svg width="323" height="49" viewBox="0 0 323 49" fill="none" xmlns="http://www.w3.org/2000/svg">
<g clip-path="url(#clip0_655_3623)">
<g clip-path="url(#clip1_655_3623)">
<path d="M54.5602 38.469L45.7002 47.9556C45.5075 48.1632 45.2745 48.3294 45.0154 48.444C44.7564 48.5586 44.4768 48.6193 44.1935 48.6223H2.19352C1.99335 48.621 1.79786 48.5616 1.63082 48.4513C1.46378 48.3409 1.33238 48.1845 1.25259 48.0009C1.1728 47.8173 1.14805 47.6145 1.18136 47.4171C1.21466 47.2197 1.30458 47.0362 1.44019 46.889L10.3002 37.389C10.4929 37.1814 10.7259 37.0153 10.9849 36.9006C11.244 36.786 11.5236 36.7254 11.8069 36.7223H53.8069C54.0096 36.7212 54.2083 36.7798 54.378 36.8907C54.5478 37.0017 54.6811 37.1602 54.7614 37.3464C54.8417 37.5326 54.8655 37.7383 54.8297 37.938C54.7939 38.1376 54.7002 38.3223 54.5602 38.469ZM45.7002 19.3356C45.5082 19.1271 45.2754 18.9604 45.0162 18.8457C44.757 18.731 44.477 18.6708 44.1935 18.669H2.19352C1.99335 18.6685 1.7974 18.7266 1.6298 18.8361C1.4622 18.9455 1.33026 19.1016 1.25021 19.2851C1.17016 19.4686 1.1455 19.6714 1.17925 19.8688C1.213 20.0661 1.30371 20.2492 1.44019 20.3956L10.3002 29.909C10.4922 30.1175 10.725 30.2843 10.9842 30.3989C11.2434 30.5136 11.5234 30.5738 11.8069 30.5756H53.8069C54.007 30.5761 54.203 30.518 54.3706 30.4085C54.5382 30.2991 54.6701 30.143 54.7502 29.9595C54.8302 29.7761 54.8549 29.5732 54.8211 29.3759C54.7874 29.1786 54.6967 28.9954 54.5602 28.849L45.7002 19.3356ZM2.19352 12.509H44.1935C44.4768 12.5059 44.7564 12.4453 45.0154 12.3306C45.2745 12.216 45.5075 12.0499 45.7002 11.8423L54.5602 2.35565C54.6958 2.2084 54.7857 2.02493 54.819 1.82754C54.8523 1.63015 54.8276 1.42733 54.7478 1.24374C54.668 1.06015 54.5366 0.903688 54.3696 0.793369C54.2025 0.68305 54.007 0.623625 53.8069 0.622314H11.8069C11.5236 0.625358 11.244 0.686036 10.9849 0.80065C10.7259 0.915265 10.4929 1.08142 10.3002 1.28898L1.44019 10.7756C1.30458 10.9229 1.21466 11.1064 1.18136 11.3038C1.14805 11.5011 1.1728 11.704 1.25259 11.8876C1.33238 12.0711 1.46378 12.2276 1.63082 12.3379C1.79786 12.4482 1.99335 12.5077 2.19352 12.509Z" fill="url(#paint0_linear_655_3623)"/>
<path d="M105.487 20.8889H83.0336V13.4222H111.334V5.95557H82.9802C81.0141 5.95557 79.1285 6.73661 77.7382 8.12688C76.3479 9.51715 75.5669 11.4028 75.5669 13.3689V20.9422C75.5669 21.9158 75.7586 22.8798 76.1312 23.7792C76.5038 24.6786 77.0498 25.4959 77.7382 26.1842C79.1285 27.5745 81.0141 28.3556 82.9802 28.3556H105.434V35.8222H76.1002V43.2889H105.487C107.453 43.2889 109.339 42.5078 110.729 41.1176C112.119 39.7273 112.9 37.8417 112.9 35.8756V28.3022C112.9 27.3287 112.708 26.3647 112.336 25.4653C111.963 24.5658 111.417 23.7486 110.729 23.0602C110.041 22.3718 109.223 21.8258 108.324 21.4532C107.424 21.0806 106.46 20.8889 105.487 20.8889Z" fill="white"/>
<path d="M148.94 5.95557H126.427C124.46 5.95557 122.575 6.73661 121.184 8.12688C119.794 9.51715 119.013 11.4028 119.013 13.3689V35.8756C119.013 37.8417 119.794 39.7273 121.184 41.1176C122.575 42.5078 124.46 43.2889 126.427 43.2889H148.94C149.913 43.2889 150.877 43.0971 151.776 42.7245C152.675 42.3518 153.492 41.8057 154.18 41.1172C154.867 40.4287 155.413 39.6114 155.785 38.712C156.156 37.8126 156.347 36.8488 156.347 35.8756V13.3689C156.347 12.3957 156.156 11.4318 155.785 10.5324C155.413 9.63306 154.867 8.81576 154.18 8.12729C153.492 7.43881 152.675 6.89264 151.776 6.52C150.877 6.14737 149.913 5.95557 148.94 5.95557ZM148.88 35.8222H126.48V13.4222H148.88V35.8222Z" fill="white"/>
<path d="M227.827 5.95557H205.827C204.853 5.95557 203.889 6.14732 202.99 6.51987C202.091 6.89243 201.273 7.43849 200.585 8.12688C199.897 8.81527 199.35 9.63251 198.978 10.5319C198.605 11.4314 198.414 12.3954 198.414 13.3689V43.2889H205.88V31.0222H227.747V43.2889H235.214V13.3689C235.214 11.4074 234.436 9.52579 233.052 8.13629C231.667 6.74678 229.788 5.96262 227.827 5.95557ZM227.774 23.5556H205.907V13.4222H227.774V23.5556Z" fill="white"/>
<path d="M315.253 5.95557H293.253C291.292 5.96262 289.413 6.74678 288.029 8.13629C286.644 9.52579 285.867 11.4074 285.867 13.3689V43.2889H293.333V31.0222H315.2V43.2889H322.667V13.3689C322.667 12.3954 322.475 11.4314 322.102 10.5319C321.73 9.63251 321.184 8.81527 320.495 8.12688C319.807 7.43849 318.99 6.89243 318.09 6.51987C317.191 6.14732 316.227 5.95557 315.253 5.95557ZM315.2 23.5556H293.333V13.4222H315.2V23.5556Z" fill="white"/>
<path d="M271.753 35.8223H268.767L258.1 9.06233C257.73 8.1401 257.09 7.35066 256.265 6.79662C255.44 6.24258 254.467 5.94956 253.473 5.95566H246.807C245.497 5.95566 244.24 6.47612 243.314 7.40255C242.387 8.32898 241.867 9.58549 241.867 10.8957V43.289H249.333V13.4223H252.32L263.027 40.1823C263.394 41.1024 264.03 41.8907 264.852 42.4447C265.673 42.9987 266.643 43.2929 267.633 43.289H274.3C274.949 43.289 275.591 43.1612 276.19 42.913C276.79 42.6647 277.334 42.3008 277.793 41.8421C278.252 41.3834 278.616 40.8388 278.864 40.2394C279.112 39.6401 279.24 38.9977 279.24 38.349V5.95566H271.773L271.753 35.8223Z" fill="white"/>
<path d="M170.46 5.95557H162.994V35.8756C162.994 37.8417 163.775 39.7273 165.165 41.1176C166.555 42.5078 168.441 43.2889 170.407 43.2889H192.86V35.8222H170.46V5.95557Z" fill="white"/>
</g>
</g>
<defs>
<linearGradient id="paint0_linear_655_3623" x1="5.69352" y1="49.769" x2="49.7402" y2="0.11565" gradientUnits="userSpaceOnUse">
<stop offset="0.08" stop-color="#9945FF"/>
<stop offset="0.3" stop-color="#8752F3"/>
<stop offset="0.5" stop-color="#5497D5"/>
<stop offset="0.6" stop-color="#43B4CA"/>
<stop offset="0.72" stop-color="#28E0B9"/>
<stop offset="0.97" stop-color="#19FB9B"/>
</linearGradient>
<clipPath id="clip0_655_3623">
<rect width="322.667" height="48" fill="white" transform="translate(0 0.622314)"/>
</clipPath>
<clipPath id="clip1_655_3623">
<rect width="322.667" height="48" fill="white" transform="translate(0 0.622314)"/>
</clipPath>
</defs>
</svg>
