<svg width="242" height="36" viewBox="0 0 242 36" fill="none" xmlns="http://www.w3.org/2000/svg">
<g clip-path="url(#clip0_655_3503)">
<mask id="mask0_655_3503" style="mask-type:luminance" maskUnits="userSpaceOnUse" x="0" y="0" width="242" height="36">
<path d="M242 0H0V36H242V0Z" fill="white"/>
</mask>
<g mask="url(#mask0_655_3503)">
<path d="M40.9199 28.3801L34.2699 35.5101C34.125 35.6646 33.95 35.7879 33.7556 35.8721C33.5613 35.9564 33.3517 36 33.1399 36.0001H1.64992C1.49838 36.0024 1.34953 35.9598 1.22204 35.8779C1.09455 35.7959 0.994078 35.6782 0.933217 35.5394C0.872356 35.4006 0.853812 35.2469 0.879909 35.0976C0.906006 34.9483 0.975582 34.81 1.07992 34.7001L7.72992 27.5801C7.87326 27.4236 8.04799 27.2991 8.24269 27.2146C8.4374 27.1302 8.64771 27.0878 8.85992 27.0901H40.3499C40.4995 27.0897 40.6459 27.1328 40.7714 27.2143C40.8968 27.2958 40.9958 27.4121 41.0563 27.5489C41.1168 27.6857 41.1361 27.8372 41.1118 27.9848C41.0876 28.1324 41.0209 28.2698 40.9199 28.3801ZM34.2699 14.0001C34.125 13.8455 33.95 13.7223 33.7556 13.638C33.5613 13.5538 33.3517 13.5102 33.1399 13.5101H1.64992C1.49838 13.5078 1.34953 13.5503 1.22204 13.6323C1.09455 13.7142 0.994078 13.832 0.933217 13.9708C0.872356 14.1096 0.853812 14.2633 0.879909 14.4126C0.906006 14.5619 0.975582 14.7002 1.07992 14.8101L7.72992 22.0001C7.87479 22.1546 8.04981 22.2779 8.24416 22.3621C8.43852 22.4464 8.64808 22.49 8.85992 22.4901H40.3499C40.5014 22.4924 40.6503 22.4498 40.7778 22.3679C40.9053 22.2859 41.0057 22.1682 41.0666 22.0294C41.1274 21.8906 41.146 21.7369 41.1199 21.5876C41.0938 21.4383 41.0242 21.3 40.9199 21.1901L34.2699 14.0001ZM1.64992 8.91009H33.1399C33.3521 8.91241 33.5624 8.86997 33.7571 8.78554C33.9518 8.70111 34.1265 8.57658 34.2699 8.42009L40.9199 1.30009C41.0242 1.19016 41.0938 1.05188 41.1199 0.902583C41.146 0.753285 41.1274 0.599606 41.0666 0.4608C41.0057 0.321995 40.9053 0.204238 40.7778 0.122283C40.6503 0.0403277 40.5014 -0.00217986 40.3499 8.60953e-05H8.85992C8.64808 0.000207028 8.43852 0.0437504 8.24416 0.128028C8.04981 0.212305 7.87479 0.335527 7.72992 0.490086L1.07992 7.62009C0.9789 7.73041 0.912201 7.86777 0.887975 8.01538C0.863748 8.163 0.883042 8.31447 0.9435 8.45129C1.00396 8.58812 1.10296 8.70437 1.22841 8.78585C1.35387 8.86733 1.50033 8.9105 1.64992 8.91009Z" fill="black"/>
<path d="M79.1199 15.2H62.2799V9.6H83.4799V4H62.2299C61.5002 4 60.7777 4.14388 60.1037 4.42342C59.4297 4.70296 58.8174 5.11267 58.3019 5.62909C57.7864 6.14552 57.3778 6.75852 57.0995 7.43304C56.8212 8.10755 56.6786 8.83032 56.6799 9.56V15.24C56.6786 15.9697 56.8212 16.6925 57.0995 17.367C57.3778 18.0415 57.7864 18.6545 58.3019 19.1709C58.8174 19.6873 59.4297 20.097 60.1037 20.3766C60.7777 20.6561 61.5002 20.8 62.2299 20.8H79.0799V26.4H57.0799V32H79.0799C80.5545 32 81.9687 31.4142 83.0114 30.3715C84.0541 29.3288 84.6399 27.9146 84.6399 26.44V20.76C84.6399 19.2923 84.0596 17.8841 83.0256 16.8426C81.9915 15.801 80.5876 15.2106 79.1199 15.2Z" fill="black"/>
<path d="M111.7 4H94.8199C93.3453 4 91.9311 4.58578 90.8884 5.62849C89.8457 6.67119 89.2599 8.0854 89.2599 9.56V26.44C89.2599 27.9146 89.8457 29.3288 90.8884 30.3715C91.9311 31.4142 93.3453 32 94.8199 32H111.7C113.175 32 114.589 31.4142 115.632 30.3715C116.674 29.3288 117.26 27.9146 117.26 26.44V9.56C117.26 8.0854 116.674 6.67119 115.632 5.62849C114.589 4.58578 113.175 4 111.7 4ZM111.7 26.4H94.8599V9.6H111.66L111.7 26.4Z" fill="black"/>
<path d="M170.87 4H154.39C152.915 4 151.501 4.58578 150.458 5.62849C149.416 6.67119 148.83 8.0854 148.83 9.56V32H154.43V22.8H170.83V32H176.43V9.56C176.43 8.0854 175.844 6.67119 174.802 5.62849C173.759 4.58578 172.345 4 170.87 4ZM170.87 17.2H154.47V9.6H170.87V17.2Z" fill="black"/>
<path d="M236.44 4H220C218.525 4 217.111 4.58578 216.068 5.62849C215.026 6.67119 214.44 8.0854 214.44 9.56V32H220V22.8H236.4V32H242V9.56C242 8.82985 241.856 8.10685 241.577 7.43228C241.297 6.75771 240.888 6.14478 240.372 5.62849C239.855 5.11219 239.242 4.70265 238.568 4.42323C237.893 4.14381 237.17 4 236.44 4ZM236.44 17.2H220V9.6H236.4L236.44 17.2Z" fill="black"/>
<path d="M203.82 26.4001H201.58L193.58 6.33009C193.303 5.63802 192.823 5.04556 192.204 4.62994C191.585 4.21432 190.856 3.99483 190.11 4.00009H185.11C184.128 4.00274 183.187 4.39478 182.493 5.09026C181.8 5.78573 181.41 6.72787 181.41 7.71009V32.0001H187V9.60009H189.24L197.24 29.6701C197.52 30.3646 198.002 30.9585 198.625 31.3742C199.248 31.7899 199.981 32.008 200.73 32.0001H205.73C206.217 32.0001 206.7 31.9041 207.15 31.7177C207.6 31.5312 208.009 31.258 208.353 30.9135C208.698 30.569 208.971 30.16 209.158 29.7098C209.344 29.2597 209.44 28.7773 209.44 28.2901V4.00009H203.84L203.82 26.4001Z" fill="black"/>
<path d="M127.85 4H122.25V26.44C122.25 27.9146 122.836 29.3288 123.878 30.3715C124.921 31.4142 126.335 32 127.81 32H144.65V26.4H127.85V4Z" fill="black"/>
</g>
</g>
<defs>
<clipPath id="clip0_655_3503">
<rect width="242" height="36" fill="white"/>
</clipPath>
</defs>
</svg>
