<svg width="484" height="72" viewBox="0 0 484 72" fill="none" xmlns="http://www.w3.org/2000/svg">
<g clip-path="url(#clip0_655_3479)">
<mask id="mask0_655_3479" style="mask-type:luminance" maskUnits="userSpaceOnUse" x="0" y="0" width="484" height="72">
<path d="M484 0H0V72H484V0Z" fill="white"/>
</mask>
<g mask="url(#mask0_655_3479)">
<path d="M81.8399 56.77L68.5499 71C68.2608 71.3113 67.9113 71.5606 67.5228 71.7325C67.1342 71.9044 66.7147 71.9954 66.2899 72H3.28992C2.98966 71.998 2.69643 71.9089 2.44587 71.7434C2.19531 71.5779 1.99821 71.3432 1.87852 71.0679C1.75883 70.7925 1.72171 70.4883 1.77167 70.1922C1.82162 69.8961 1.95651 69.6209 2.15992 69.4L15.4499 55.15C15.739 54.8387 16.0885 54.5894 16.477 54.4175C16.8655 54.2456 17.285 54.1546 17.7099 54.15H80.7099C81.0141 54.1483 81.312 54.2362 81.5667 54.4026C81.8213 54.5691 82.0213 54.8068 82.1417 55.0861C82.2622 55.3655 82.2978 55.674 82.2442 55.9735C82.1905 56.2729 82.0499 56.5499 81.8399 56.77ZM68.5499 28.07C68.2619 27.7572 67.9126 27.5071 67.5238 27.3351C67.135 27.163 66.715 27.0728 66.2899 27.07H3.28992C2.98965 27.0693 2.69574 27.1564 2.44434 27.3206C2.19294 27.4848 1.99503 27.719 1.87495 27.9942C1.75488 28.2694 1.71788 28.5737 1.76851 28.8697C1.81914 29.1656 1.95519 29.4403 2.15992 29.66L15.4499 43.93C15.7379 44.2427 16.0871 44.4929 16.4759 44.6649C16.8647 44.837 17.2847 44.9272 17.7099 44.93H80.7099C81.0102 44.9307 81.3041 44.8436 81.5555 44.6794C81.8069 44.5152 82.0048 44.2811 82.1249 44.0058C82.2449 43.7306 82.2819 43.4263 82.2313 43.1303C82.1807 42.8344 82.0446 42.5597 81.8399 42.34L68.5499 28.07ZM3.28992 17.83H66.2899C66.7147 17.8254 67.1342 17.7344 67.5228 17.5625C67.9113 17.3906 68.2608 17.1413 68.5499 16.83L81.8399 2.6C82.0433 2.37913 82.1782 2.10392 82.2281 1.80784C82.2781 1.51175 82.241 1.20753 82.1213 0.932141C82.0016 0.656754 81.8045 0.422061 81.5539 0.256582C81.3034 0.0911036 81.0101 0.0019653 80.7099 0H17.7099C17.285 0.004566 16.8655 0.0955824 16.477 0.267504C16.0885 0.439425 15.739 0.688652 15.4499 1L2.15992 15.23C1.95651 15.4509 1.82162 15.7261 1.77167 16.0222C1.72171 16.3182 1.75883 16.6225 1.87852 16.8979C1.99821 17.1732 2.19531 17.4079 2.44587 17.5734C2.69643 17.7389 2.98966 17.828 3.28992 17.83Z" fill="black"/>
<path d="M158.23 30.4H124.55V19.2H167V8H124.47C121.521 8 118.692 9.17157 116.607 11.257C114.522 13.3424 113.35 16.1708 113.35 19.12V30.48C113.35 31.9403 113.638 33.3863 114.196 34.7354C114.755 36.0846 115.574 37.3104 116.607 38.343C118.692 40.4284 121.521 41.6 124.47 41.6H158.15V52.8H114.15V64H158.23C161.179 64 164.008 62.8284 166.093 60.743C168.178 58.6576 169.35 55.8292 169.35 52.88V41.52C169.35 40.0597 169.062 38.6137 168.504 37.2646C167.945 35.9154 167.126 34.6896 166.093 33.657C165.06 32.6244 163.835 31.8053 162.485 31.2465C161.136 30.6876 159.69 30.4 158.23 30.4Z" fill="black"/>
<path d="M223.41 8H189.64C186.691 8 183.862 9.17157 181.777 11.257C179.692 13.3424 178.52 16.1708 178.52 19.12V52.88C178.52 55.8292 179.692 58.6576 181.777 60.743C183.862 62.8284 186.691 64 189.64 64H223.41C224.87 64 226.315 63.7123 227.664 63.1533C229.013 62.5944 230.238 61.7751 231.27 60.7424C232.301 59.7097 233.119 58.4838 233.677 57.1347C234.235 55.7856 234.521 54.3398 234.52 52.88V19.12C234.521 17.6602 234.235 16.2144 233.677 14.8653C233.119 13.5162 232.301 12.2903 231.27 11.2576C230.238 10.2249 229.013 9.40561 227.664 8.84665C226.315 8.2877 224.87 8 223.41 8ZM223.32 52.8H189.72V19.2H223.32V52.8Z" fill="black"/>
<path d="M341.74 8H308.74C307.28 8 305.834 8.28763 304.485 8.84646C303.135 9.40529 301.91 10.2244 300.877 11.257C299.844 12.2896 299.025 13.5154 298.466 14.8646C297.908 16.2137 297.62 17.6597 297.62 19.12V64H308.82V45.6H341.62V64H352.82V19.12C352.82 16.1777 351.654 13.3553 349.577 11.2711C347.5 9.18682 344.682 8.01058 341.74 8ZM341.66 34.4H308.86V19.2H341.66V34.4Z" fill="black"/>
<path d="M472.88 8H439.88C436.938 8.01058 434.12 9.18682 432.043 11.2711C429.966 13.3553 428.8 16.1777 428.8 19.12V64H440V45.6H472.8V64H484V19.12C484 17.6597 483.712 16.2137 483.154 14.8646C482.595 13.5154 481.776 12.2896 480.743 11.257C479.711 10.2244 478.485 9.40529 477.135 8.84646C475.786 8.28763 474.34 8 472.88 8ZM472.8 34.4H440V19.2H472.8V34.4Z" fill="black"/>
<path d="M407.63 52.7999H403.15L387.15 12.6599C386.594 11.2766 385.635 10.0924 384.398 9.26133C383.16 8.43027 381.701 7.99075 380.21 7.9999H370.21C368.245 7.9999 366.36 8.78059 364.97 10.1702C363.581 11.5599 362.8 13.4446 362.8 15.4099V63.9999H374V19.1999H378.48L394.54 59.3399C395.092 60.7201 396.046 61.9025 397.278 62.7335C398.51 63.5645 399.964 64.0057 401.45 63.9999H411.45C412.423 63.9999 413.387 63.8082 414.286 63.4358C415.185 63.0635 416.002 62.5176 416.69 61.8296C417.378 61.1415 417.924 60.3246 418.296 59.4256C418.668 58.5266 418.86 57.563 418.86 56.5899V7.9999H407.66L407.63 52.7999Z" fill="black"/>
<path d="M255.69 8H244.49V52.88C244.49 55.8292 245.662 58.6576 247.747 60.743C249.832 62.8284 252.661 64 255.61 64H289.29V52.8H255.69V8Z" fill="black"/>
</g>
</g>
<defs>
<clipPath id="clip0_655_3479">
<rect width="484" height="72" fill="white"/>
</clipPath>
</defs>
</svg>
