<svg width="162" height="25" viewBox="0 0 162 25" fill="none" xmlns="http://www.w3.org/2000/svg">
<g clip-path="url(#clip0_655_3687)">
<g clip-path="url(#clip1_655_3687)">
<path d="M27.2791 19.7344L22.8491 24.4777C22.7527 24.5815 22.6363 24.6646 22.5067 24.7219C22.3772 24.7792 22.2374 24.8095 22.0958 24.811H1.09579C0.995697 24.8104 0.897954 24.7807 0.814434 24.7255C0.730915 24.6703 0.665215 24.5921 0.625319 24.5003C0.585423 24.4085 0.573049 24.3071 0.589701 24.2084C0.606353 24.1097 0.651314 24.018 0.719119 23.9444L5.14912 19.1944C5.24549 19.0906 5.36198 19.0075 5.49149 18.9502C5.62101 18.8929 5.76083 18.8626 5.90245 18.861H26.9024C27.0038 18.8605 27.1032 18.8898 27.188 18.9452C27.2729 19.0007 27.3396 19.08 27.3797 19.1731C27.4199 19.2662 27.4318 19.369 27.4139 19.4689C27.396 19.5687 27.3491 19.661 27.2791 19.7344ZM22.8491 10.1677C22.7531 10.0635 22.6367 9.98006 22.5071 9.92272C22.3775 9.86537 22.2375 9.8353 22.0958 9.83437H1.09579C0.995696 9.83414 0.897724 9.86318 0.813925 9.91791C0.730126 9.97265 0.664155 10.0507 0.62413 10.1424C0.584105 10.2342 0.571772 10.3356 0.588649 10.4343C0.605526 10.5329 0.650876 10.6245 0.719119 10.6977L5.14912 15.4544C5.24512 15.5586 5.36153 15.642 5.49113 15.6993C5.62073 15.7567 5.76074 15.7868 5.90245 15.7877H26.9024C27.0025 15.7879 27.1005 15.7589 27.1843 15.7042C27.2681 15.6494 27.3341 15.5714 27.3741 15.4796C27.4141 15.3879 27.4265 15.2865 27.4096 15.1878C27.3927 15.0892 27.3474 14.9976 27.2791 14.9244L22.8491 10.1677ZM1.09579 6.75437H22.0958C22.2374 6.75285 22.3772 6.72251 22.5067 6.6652C22.6363 6.60789 22.7527 6.52482 22.8491 6.42103L27.2791 1.6777C27.3469 1.60408 27.3919 1.51234 27.4085 1.41365C27.4252 1.31495 27.4128 1.21354 27.3729 1.12175C27.333 1.02995 27.2673 0.951722 27.1838 0.896563C27.1003 0.841403 27.0025 0.81169 26.9024 0.811035H5.90245C5.76083 0.812557 5.62101 0.842896 5.49149 0.900203C5.36198 0.95751 5.24549 1.04059 5.14912 1.14437L0.719119 5.8877C0.651314 5.96133 0.606353 6.05306 0.589701 6.15175C0.573049 6.25045 0.585423 6.35186 0.625319 6.44365C0.665215 6.53545 0.730915 6.61368 0.814434 6.66884C0.897954 6.724 0.995697 6.75371 1.09579 6.75437Z" fill="white"/>
<path d="M52.7425 10.9443H41.5158V7.21099H55.6658V3.47766H41.4891C40.5061 3.47766 39.5633 3.86818 38.8681 4.56332C38.173 5.25845 37.7825 6.20126 37.7825 7.18433V10.971C37.7825 11.4578 37.8783 11.9398 38.0646 12.3895C38.2509 12.8392 38.5239 13.2478 38.8681 13.592C39.5633 14.2871 40.5061 14.6777 41.4891 14.6777H52.7158V18.411H38.0491V22.1443H52.7425C53.7255 22.1443 54.6683 21.7538 55.3635 21.0587C56.0586 20.3635 56.4491 19.4207 56.4491 18.4377V14.651C56.4491 14.1642 56.3533 13.6822 56.167 13.2325C55.9807 12.7828 55.7077 12.3742 55.3635 12.03C55.0193 11.6858 54.6107 11.4128 54.1609 11.2265C53.7112 11.0402 53.2292 10.9443 52.7425 10.9443Z" fill="white"/>
<path d="M74.4689 3.47766H63.2123C62.2292 3.47766 61.2864 3.86818 60.5913 4.56332C59.8961 5.25845 59.5056 6.20126 59.5056 7.18433V18.4377C59.5056 19.4207 59.8961 20.3635 60.5913 21.0587C61.2864 21.7538 62.2292 22.1443 63.2123 22.1443H74.4689C74.9556 22.1443 75.4374 22.0484 75.8869 21.8621C76.3364 21.6758 76.7449 21.4027 77.0888 21.0585C77.4327 20.7142 77.7054 20.3056 77.8913 19.8559C78.0772 19.4062 78.1727 18.9243 78.1723 18.4377V7.18433C78.1727 6.69772 78.0772 6.21579 77.8913 5.7661C77.7054 5.31641 77.4327 4.90776 77.0888 4.56352C76.7449 4.21928 76.3364 3.9462 75.8869 3.75988C75.4374 3.57356 74.9556 3.47766 74.4689 3.47766ZM74.4389 18.411H63.2389V7.21099H74.4389V18.411Z" fill="white"/>
<path d="M113.912 3.47766H102.912C102.426 3.47766 101.944 3.57354 101.494 3.75981C101.044 3.94609 100.636 4.21912 100.291 4.56332C99.9473 4.90751 99.6742 5.31613 99.488 5.76585C99.3017 6.21556 99.2058 6.69756 99.2058 7.18433V22.1443H102.939V16.011H113.872V22.1443H117.606V7.18433C117.606 6.20356 117.217 5.26277 116.525 4.56802C115.833 3.87327 114.893 3.48119 113.912 3.47766ZM113.886 12.2777H102.952V7.21099H113.886V12.2777Z" fill="white"/>
<path d="M157.626 3.47766H146.626C145.645 3.48119 144.706 3.87327 144.013 4.56802C143.321 5.26277 142.932 6.20356 142.932 7.18433V22.1443H146.666V16.011H157.599V22.1443H161.332V7.18433C161.332 6.69756 161.236 6.21556 161.05 5.76585C160.864 5.31613 160.591 4.90751 160.247 4.56332C159.903 4.21912 159.494 3.94609 159.044 3.75981C158.594 3.57354 158.112 3.47766 157.626 3.47766ZM157.599 12.2777H146.666V7.21099H157.599V12.2777Z" fill="white"/>
<path d="M135.876 18.411H134.382L129.049 5.03104C128.864 4.56993 128.544 4.17521 128.132 3.89819C127.719 3.62117 127.233 3.47466 126.736 3.47771H123.402C122.747 3.47771 122.119 3.73794 121.656 4.20115C121.193 4.66437 120.932 5.29262 120.932 5.94771V22.1444H124.666V7.21104H126.159L131.512 20.591C131.696 21.0511 132.014 21.4452 132.425 21.7222C132.836 21.9992 133.32 22.1463 133.816 22.1444H137.149C137.473 22.1444 137.795 22.0805 138.094 21.9564C138.394 21.8322 138.666 21.6503 138.896 21.4209C139.125 21.1916 139.307 20.9193 139.431 20.6196C139.555 20.3199 139.619 19.9987 139.619 19.6744V3.47771H135.886L135.876 18.411Z" fill="white"/>
<path d="M85.2289 3.47766H81.4956V18.4377C81.4956 19.4207 81.8861 20.3635 82.5813 21.0587C83.2764 21.7538 84.2192 22.1443 85.2023 22.1443H96.4289V18.411H85.2289V3.47766Z" fill="white"/>
</g>
</g>
<defs>
<clipPath id="clip0_655_3687">
<rect width="161.333" height="24" fill="white" transform="translate(-0.000976562 0.811035)"/>
</clipPath>
<clipPath id="clip1_655_3687">
<rect width="161.333" height="24" fill="white" transform="translate(-0.000976562 0.811035)"/>
</clipPath>
</defs>
</svg>
