<svg width="484" height="73" viewBox="0 0 484 73" fill="none" xmlns="http://www.w3.org/2000/svg">
<g clip-path="url(#clip0_655_3597)">
<g clip-path="url(#clip1_655_3597)">
<path d="M81.8405 57.2031L68.5505 71.4331C68.2614 71.7445 67.9119 71.9937 67.5234 72.1656C67.1349 72.3375 66.7154 72.4285 66.2905 72.4331H3.29053C2.99027 72.4311 2.69704 72.342 2.44648 72.1765C2.19592 72.011 1.99882 71.7764 1.87913 71.501C1.75944 71.2256 1.72232 70.9214 1.77228 70.6253C1.82223 70.3292 1.95712 70.054 2.16053 69.8331L15.4505 55.5831C15.7396 55.2718 16.0891 55.0225 16.4777 54.8506C16.8662 54.6787 17.2857 54.5877 17.7105 54.5831H80.7105C81.0147 54.5814 81.3127 54.6693 81.5673 54.8357C81.8219 55.0022 82.0219 55.2399 82.1424 55.5192C82.2629 55.7986 82.2985 56.1072 82.2448 56.4066C82.1911 56.706 82.0505 56.983 81.8405 57.2031ZM68.5505 28.5031C68.2625 28.1904 67.9133 27.9402 67.5245 27.7682C67.1357 27.5961 66.7157 27.5059 66.2905 27.5031H3.29053C2.99026 27.5024 2.69635 27.5896 2.44495 27.7537C2.19355 27.9179 1.99564 28.1521 1.87556 28.4273C1.75549 28.7025 1.71849 29.0068 1.76912 29.3028C1.81975 29.5987 1.9558 29.8735 2.16053 30.0931L15.4505 44.3631C15.7385 44.6759 16.0878 44.926 16.4766 45.0981C16.8654 45.2701 17.2854 45.3603 17.7105 45.3631H80.7105C81.0108 45.3638 81.3047 45.2767 81.5561 45.1125C81.8075 44.9483 82.0054 44.7142 82.1255 44.4389C82.2456 44.1637 82.2826 43.8594 82.2319 43.5634C82.1813 43.2675 82.0453 42.9928 81.8405 42.7731L68.5505 28.5031ZM3.29053 18.2631H66.2905C66.7154 18.2585 67.1349 18.1675 67.5234 17.9956C67.9119 17.8237 68.2614 17.5745 68.5505 17.2631L81.8405 3.03311C82.0439 2.81223 82.1788 2.53703 82.2288 2.24094C82.2787 1.94486 82.2416 1.64063 82.1219 1.36525C82.0022 1.08986 81.8051 0.855166 81.5546 0.689688C81.304 0.524209 81.0108 0.435071 80.7105 0.433105L17.7105 0.433105C17.2857 0.437671 16.8662 0.528688 16.4777 0.700609C16.0891 0.872531 15.7396 1.12176 15.4505 1.43311L2.16053 15.6631C1.95712 15.884 1.82223 16.1592 1.77228 16.4553C1.72232 16.7514 1.75944 17.0556 1.87913 17.331C1.99882 17.6064 2.19592 17.841 2.44648 18.0065C2.69704 18.172 2.99027 18.2611 3.29053 18.2631Z" fill="white"/>
<path d="M158.231 30.8331H124.551V19.6331H167.001V8.43311H124.471C121.521 8.43311 118.693 9.60467 116.608 11.6901C114.522 13.7755 113.351 16.6039 113.351 19.5531V30.9131C113.351 32.3734 113.638 33.8194 114.197 35.1685C114.756 36.5177 115.575 37.7435 116.608 38.7761C118.693 40.8615 121.521 42.0331 124.471 42.0331H158.151V53.2331H114.151V64.4331H158.231C161.18 64.4331 164.008 63.2615 166.094 61.1761C168.179 59.0907 169.351 56.2623 169.351 53.3131V41.9531C169.351 40.4928 169.063 39.0468 168.504 37.6977C167.945 36.3485 167.126 35.1227 166.094 34.0901C165.061 33.0575 163.835 32.2384 162.486 31.6796C161.137 31.1207 159.691 30.8331 158.231 30.8331Z" fill="white"/>
<path d="M223.411 8.43311H189.641C186.691 8.43311 183.863 9.60467 181.777 11.6901C179.692 13.7755 178.521 16.6039 178.521 19.5531V53.3131C178.521 56.2623 179.692 59.0907 181.777 61.1761C183.863 63.2615 186.691 64.4331 189.641 64.4331H223.411C224.87 64.4331 226.316 64.1454 227.664 63.5865C229.013 63.0275 230.238 62.2082 231.27 61.1755C232.302 60.1428 233.12 58.9169 233.678 57.5678C234.235 56.2187 234.522 54.7729 234.521 53.3131V19.5531C234.522 18.0933 234.235 16.6475 233.678 15.2984C233.12 13.9493 232.302 12.7234 231.27 11.6907C230.238 10.658 229.013 9.83871 227.664 9.27976C226.316 8.7208 224.87 8.4331 223.411 8.43311ZM223.321 53.2331H189.721V19.6331H223.321V53.2331Z" fill="white"/>
<path d="M341.741 8.43311H308.741C307.28 8.43311 305.834 8.72073 304.485 9.27956C303.136 9.8384 301.91 10.6575 300.878 11.6901C299.845 12.7227 299.026 13.9485 298.467 15.2977C297.908 16.6468 297.621 18.0928 297.621 19.5531V64.4331H308.821V46.0331H341.621V64.4331H352.821V19.5531C352.821 16.6108 351.655 13.7884 349.578 11.7042C347.501 9.61993 344.683 8.44369 341.741 8.43311ZM341.661 34.8331H308.861V19.6331H341.661V34.8331Z" fill="white"/>
<path d="M472.881 8.43311H439.881C436.938 8.44369 434.12 9.61993 432.043 11.7042C429.967 13.7884 428.801 16.6108 428.801 19.5531V64.4331H440.001V46.0331H472.801V64.4331H484.001V19.5531C484.001 18.0928 483.713 16.6468 483.154 15.2977C482.595 13.9485 481.776 12.7227 480.744 11.6901C479.711 10.6575 478.485 9.8384 477.136 9.27956C475.787 8.72073 474.341 8.43311 472.881 8.43311ZM472.801 34.8331H440.001V19.6331H472.801V34.8331Z" fill="white"/>
<path d="M407.631 53.233H403.151L387.151 13.093C386.595 11.7097 385.636 10.5255 384.398 9.69444C383.16 8.86337 381.701 8.42385 380.211 8.433H370.211C368.245 8.433 366.361 9.2137 364.971 10.6033C363.581 11.993 362.801 13.8777 362.801 15.843V64.433H374.001V19.633H378.481L394.541 59.773C395.092 61.1532 396.046 62.3356 397.278 63.1666C398.511 63.9976 399.964 64.4389 401.451 64.433H411.451C412.424 64.433 413.387 64.2413 414.286 63.8689C415.185 63.4966 416.002 62.9507 416.69 62.2627C417.378 61.5746 417.924 60.7577 418.297 59.8587C418.669 58.9597 418.861 57.9961 418.861 57.023V8.433H407.661L407.631 53.233Z" fill="white"/>
<path d="M255.69 8.43311H244.49V53.3131C244.49 56.2623 245.662 59.0907 247.747 61.1761C249.833 63.2615 252.661 64.4331 255.61 64.4331H289.29V53.2331H255.69V8.43311Z" fill="white"/>
</g>
</g>
<defs>
<clipPath id="clip0_655_3597">
<rect width="484" height="72" fill="white" transform="translate(0.000488281 0.433105)"/>
</clipPath>
<clipPath id="clip1_655_3597">
<rect width="484" height="72" fill="white" transform="translate(0.000488281 0.433105)"/>
</clipPath>
</defs>
</svg>
